<svg width="630" height="463" viewBox="0 0 630 463" fill="none" xmlns="http://www.w3.org/2000/svg">
<g clip-path="url(#clip0)">
<path opacity="0.1" d="M360.658 462.042C399.425 462.042 430.851 455.329 430.851 447.048C430.851 438.767 399.425 432.054 360.658 432.054C321.891 432.054 290.464 438.767 290.464 447.048C290.464 455.329 321.891 462.042 360.658 462.042Z" fill="#790E8B"/>
<path opacity="0.1" d="M613.133 391.654C599.187 403.223 579.342 408.011 560.15 411.035L556.92 411.527C523.375 416.533 489.155 417.553 455.095 418.561C360.096 421.373 264.852 424.179 170.106 417.696C128.205 414.832 85.2676 409.815 48.5443 392.668L47.5878 392.215C47.1125 391.992 46.6371 391.768 46.1617 391.534C39.6415 388.421 33.3957 384.764 27.4908 380.6C17.0042 373.12 8.34456 363.991 3.76847 353.161C-3.40208 336.174 0.389379 317.079 8.57938 300.47C16.7694 283.861 29.083 268.901 39.7014 253.26C42.817 248.678 45.7723 243.925 48.5214 239.051C65.7032 208.484 74.2254 173.113 56.2131 143.657C53.8356 139.902 51.2684 136.27 48.5214 132.775C44.1286 127.048 39.6613 121.321 36.643 114.981C29.6042 100.227 31.1162 83.6354 33.682 67.8739C37.1184 46.9179 43.447 24.3467 63.1087 11.2541C83.5379 -2.34242 112.535 -1.65515 137.89 3.23594C177.311 10.7902 213.696 26.6032 250.425 40.8641C287.154 55.125 325.653 68.1145 366.036 69.5119C401.694 70.7548 443.291 61.4938 466.967 37.3934C489.962 13.9975 533.175 12.2278 564.331 26.3569C594.061 39.8389 613.288 68.3722 611.867 96.8711C610.057 132.437 580.407 160.919 556.943 191.199C553.043 196.234 549.308 201.325 545.901 206.503C534.778 223.415 526.915 243.73 534.572 261.988C538.868 272.212 547.063 280.012 556.943 286.822C579.079 302.074 609.634 312.337 623.379 333.688C635.217 352.107 630.83 376.963 613.133 391.654Z" fill="#790E8B"/>
<path d="M556.977 409.964C575.01 409.964 589.629 407.153 589.629 403.687C589.629 400.22 575.01 397.41 556.977 397.41C538.945 397.41 524.326 400.22 524.326 403.687C524.326 407.153 538.945 409.964 556.977 409.964Z" fill="#790E8B"/>
<path d="M556.433 405.995C558.533 405.995 560.236 403.767 560.236 401.018C560.236 398.269 558.533 396.041 556.433 396.041C554.333 396.041 552.63 398.269 552.63 401.018C552.63 403.767 554.333 405.995 556.433 405.995Z" fill="#3F3D56"/>
<path d="M556.433 399.913C558.533 399.913 560.236 397.684 560.236 394.936C560.236 392.187 558.533 389.958 556.433 389.958C554.333 389.958 552.63 392.187 552.63 394.936C552.63 397.684 554.333 399.913 556.433 399.913Z" fill="#3F3D56"/>
<path d="M556.433 393.824C558.533 393.824 560.236 391.596 560.236 388.847C560.236 386.099 558.533 383.87 556.433 383.87C554.333 383.87 552.63 386.099 552.63 388.847C552.63 391.596 554.333 393.824 556.433 393.824Z" fill="#3F3D56"/>
<path d="M556.433 387.742C558.533 387.742 560.236 385.514 560.236 382.765C560.236 380.016 558.533 377.788 556.433 377.788C554.333 377.788 552.63 380.016 552.63 382.765C552.63 385.514 554.333 387.742 556.433 387.742Z" fill="#3F3D56"/>
<path d="M556.433 381.66C558.533 381.66 560.236 379.431 560.236 376.683C560.236 373.934 558.533 371.706 556.433 371.706C554.333 371.706 552.63 373.934 552.63 376.683C552.63 379.431 554.333 381.66 556.433 381.66Z" fill="#3F3D56"/>
<path d="M556.433 375.577C558.533 375.577 560.236 373.349 560.236 370.6C560.236 367.852 558.533 365.623 556.433 365.623C554.333 365.623 552.63 367.852 552.63 370.6C552.63 373.349 554.333 375.577 556.433 375.577Z" fill="#3F3D56"/>
<path d="M556.433 369.495C558.533 369.495 560.236 367.267 560.236 364.518C560.236 361.769 558.533 359.541 556.433 359.541C554.333 359.541 552.63 361.769 552.63 364.518C552.63 367.267 554.333 369.495 556.433 369.495Z" fill="#3F3D56"/>
<path d="M570.665 322.892C571.186 322.232 571.658 321.535 572.08 320.808L562.092 319.17L572.893 319.25C573.933 316.995 574.5 314.552 574.56 312.069C574.62 309.587 574.172 307.119 573.243 304.817L558.747 312.348L572.114 302.526C570.865 300.356 569.182 298.466 567.17 296.975C565.158 295.485 562.86 294.425 560.42 293.863C557.98 293.3 555.45 293.247 552.988 293.706C550.526 294.166 548.186 295.128 546.113 296.532C544.039 297.937 542.278 299.754 540.939 301.87C539.6 303.986 538.712 306.356 538.329 308.831C537.947 311.306 538.08 313.833 538.718 316.254C539.357 318.675 540.488 320.939 542.041 322.904C541.229 323.932 540.532 325.046 539.962 326.226L552.928 332.967L539.102 328.327C538.13 331.197 537.89 334.265 538.403 337.251C538.916 340.237 540.166 343.048 542.041 345.429C539.928 348.116 538.615 351.343 538.25 354.74C537.885 358.138 538.484 361.57 539.977 364.644C541.471 367.718 543.799 370.31 546.696 372.123C549.593 373.936 552.941 374.898 556.359 374.898C559.776 374.898 563.125 373.936 566.022 372.123C568.918 370.31 571.247 367.718 572.74 364.644C574.234 361.57 574.832 358.138 574.467 354.74C574.102 351.343 572.789 348.116 570.677 345.429C573.204 342.22 574.578 338.254 574.578 334.169C574.578 330.085 573.204 326.119 570.677 322.909L570.665 322.892Z" fill="#790E8B"/>
<path opacity="0.1" d="M538.14 334.152C538.136 338.237 539.51 342.205 542.041 345.412C539.928 348.099 538.615 351.325 538.25 354.723C537.885 358.121 538.484 361.553 539.977 364.627C541.471 367.701 543.799 370.293 546.696 372.106C549.593 373.919 552.941 374.88 556.359 374.88C559.776 374.88 563.125 373.919 566.022 372.106C568.918 370.293 571.247 367.701 572.74 364.627C574.234 361.553 574.832 358.121 574.467 354.723C574.103 351.325 572.789 348.099 570.677 345.412C573.105 342.313 538.14 332.107 538.14 334.152Z" fill="black"/>
<path d="M77.1636 385.967C77.1636 389.168 64.6724 391.814 48.5272 392.192H47.5708C47.0954 391.969 46.6201 391.745 46.1447 391.511C39.6311 388.405 33.3911 384.755 27.491 380.6C31.4141 380.142 35.8757 379.833 40.6637 379.73H41.3109C42.3532 379.73 43.4128 379.695 44.4838 379.695C45.1825 379.695 45.8755 379.695 46.5571 379.695H47.2329C47.6681 379.695 48.0977 379.695 48.5215 379.695C64.6724 380.113 77.1636 382.794 77.1636 385.967Z" fill="#790E8B"/>
<path d="M43.9626 388.275C46.0629 388.275 47.7655 386.046 47.7655 383.298C47.7655 380.549 46.0629 378.321 43.9626 378.321C41.8623 378.321 40.1597 380.549 40.1597 383.298C40.1597 386.046 41.8623 388.275 43.9626 388.275Z" fill="#3F3D56"/>
<path d="M43.9626 382.192C46.0629 382.192 47.7655 379.964 47.7655 377.215C47.7655 374.467 46.0629 372.238 43.9626 372.238C41.8623 372.238 40.1597 374.467 40.1597 377.215C40.1597 379.964 41.8623 382.192 43.9626 382.192Z" fill="#3F3D56"/>
<path d="M43.9626 376.11C46.0629 376.11 47.7655 373.882 47.7655 371.133C47.7655 368.384 46.0629 366.156 43.9626 366.156C41.8623 366.156 40.1597 368.384 40.1597 371.133C40.1597 373.882 41.8623 376.11 43.9626 376.11Z" fill="#3F3D56"/>
<path d="M43.9626 370.028C46.0629 370.028 47.7655 367.799 47.7655 365.051C47.7655 362.302 46.0629 360.074 43.9626 360.074C41.8623 360.074 40.1597 362.302 40.1597 365.051C40.1597 367.799 41.8623 370.028 43.9626 370.028Z" fill="#3F3D56"/>
<path d="M43.9626 363.945C46.0629 363.945 47.7655 361.717 47.7655 358.968C47.7655 356.219 46.0629 353.991 43.9626 353.991C41.8623 353.991 40.1597 356.219 40.1597 358.968C40.1597 361.717 41.8623 363.945 43.9626 363.945Z" fill="#3F3D56"/>
<path d="M43.9626 357.863C46.0629 357.863 47.7655 355.635 47.7655 352.886C47.7655 350.137 46.0629 347.909 43.9626 347.909C41.8623 347.909 40.1597 350.137 40.1597 352.886C40.1597 355.635 41.8623 357.863 43.9626 357.863Z" fill="#3F3D56"/>
<path d="M43.9626 351.775C46.0629 351.775 47.7655 349.547 47.7655 346.798C47.7655 344.049 46.0629 341.821 43.9626 341.821C41.8623 341.821 40.1597 344.049 40.1597 346.798C40.1597 349.547 41.8623 351.775 43.9626 351.775Z" fill="#3F3D56"/>
<path d="M58.1948 305.172C58.715 304.512 59.1895 303.818 59.6152 303.093L49.6211 301.466L60.4285 301.547C61.4656 299.292 62.0311 296.85 62.0902 294.369C62.1493 291.888 61.7007 289.421 60.7721 287.12L46.2821 294.64L59.6496 284.812C58.3982 282.646 56.7141 280.761 54.7023 279.274C52.6904 277.788 50.3939 276.732 47.956 276.172C45.518 275.612 42.9908 275.56 40.532 276.02C38.0732 276.48 35.7355 277.441 33.6645 278.844C31.5936 280.247 29.8338 282.062 28.495 284.175C27.1562 286.288 26.267 288.654 25.8828 291.125C25.4986 293.597 25.6278 296.122 26.2621 298.541C26.8965 300.961 28.0225 303.224 29.5699 305.189C28.7618 306.22 28.0649 307.334 27.4909 308.511L40.4575 315.212L26.6318 310.59C25.664 313.461 25.4258 316.527 25.9387 319.512C26.4516 322.498 27.6995 325.309 29.5699 327.692C27.4579 330.378 26.1443 333.605 25.7795 337.003C25.4146 340.401 26.0132 343.833 27.5067 346.907C29.0002 349.981 31.3284 352.572 34.2253 354.385C37.1221 356.199 40.4706 357.16 43.8881 357.16C47.3056 357.16 50.6541 356.199 53.5509 354.385C56.4478 352.572 58.776 349.981 60.2695 346.907C61.7631 343.833 62.3616 340.401 61.9967 337.003C61.6319 333.605 60.3184 330.378 58.2063 327.692C60.7332 324.482 62.1071 320.516 62.1071 316.432C62.1071 312.347 60.7332 308.381 58.2063 305.172H58.1948Z" fill="#790E8B"/>
<path opacity="0.1" d="M25.6753 316.432C25.6686 320.517 27.0409 324.484 29.5699 327.692C27.4578 330.378 26.1443 333.605 25.7794 337.003C25.4146 340.401 26.0131 343.833 27.5066 346.907C29.0001 349.981 31.3284 352.572 34.2252 354.385C37.122 356.199 40.4706 357.16 43.888 357.16C47.3055 357.16 50.654 356.199 53.5509 354.385C56.4477 352.572 58.776 349.981 60.2695 346.907C61.763 343.833 62.3615 340.401 61.9967 337.003C61.6318 333.605 60.3183 330.378 58.2062 327.692C60.6346 324.593 25.6753 314.387 25.6753 316.432Z" fill="black"/>
<g opacity="0.2">
<path opacity="0.2" d="M175.163 318.03C175.163 318.568 175.106 319.095 175.048 319.61C170.604 317.824 166.228 315.928 161.921 313.923C159.63 313.621 157.499 312.582 155.851 310.962C154.596 310.332 153.348 309.679 152.105 309.021C152.385 308.428 152.702 307.854 153.056 307.303C155.461 303.488 159.127 301.1 163.164 301.232C167.202 301.363 170.696 303.969 172.861 307.91C174.519 311.016 175.315 314.511 175.163 318.03Z" fill="#3F3D56"/>
<path opacity="0.2" d="M175.827 298.03C175.745 301.539 174.731 304.962 172.889 307.95C170.478 311.753 166.818 314.141 162.781 314.009C162.5 314.009 162.208 313.975 161.95 313.952C159.659 313.65 157.528 312.611 155.879 310.991C154.759 309.931 153.816 308.7 153.084 307.343C151.465 304.227 150.673 300.747 150.783 297.238C150.893 293.728 151.903 290.305 153.714 287.297C156.125 283.483 159.785 281.095 163.823 281.226C167.861 281.358 171.354 283.964 173.519 287.904C175.179 291.013 175.975 294.509 175.827 298.03Z" fill="#3F3D56"/>
<path opacity="0.2" d="M176.436 277.99C176.722 268.938 171.348 261.424 164.434 261.205C157.52 260.987 151.683 268.147 151.397 277.199C151.111 286.25 156.484 293.765 163.398 293.983C170.313 294.202 176.15 287.041 176.436 277.99Z" fill="#3F3D56"/>
<path opacity="0.2" d="M177.067 257.959C177.353 248.908 171.98 241.393 165.066 241.175C158.152 240.956 152.315 248.117 152.029 257.168C151.742 266.22 157.116 273.734 164.03 273.953C170.944 274.171 176.781 267.011 177.067 257.959Z" fill="#3F3D56"/>
<path opacity="0.2" d="M177.698 237.929C177.984 228.877 172.611 221.363 165.697 221.144C158.783 220.926 152.946 228.086 152.66 237.137C152.374 246.189 157.747 253.704 164.661 253.922C171.575 254.141 177.412 246.98 177.698 237.929Z" fill="#3F3D56"/>
<path opacity="0.2" d="M122.632 98.9845C120.992 96.7521 119.507 94.4099 118.188 91.9743L151.246 87.6101L115.691 86.751C112.514 79.2199 110.907 71.1198 110.968 62.9462C111.029 54.7727 112.757 46.6975 116.046 39.2147L163.01 65.4742L119.969 31.7119C124.324 24.7292 130.069 18.717 136.847 14.0495C143.625 9.38193 151.291 6.15875 159.367 4.5804C167.444 3.00205 175.759 3.10228 183.796 4.87486C191.832 6.64744 199.418 10.0545 206.081 14.884C212.744 19.7136 218.343 25.8625 222.528 32.9482C226.714 40.0339 229.397 47.905 230.41 56.0719C231.423 64.2388 230.746 72.5268 228.419 80.4206C226.093 88.3144 222.167 95.6452 216.886 101.957C219.438 105.43 221.609 109.166 223.364 113.102L179.968 133.938L225.975 120.095C228.87 129.646 229.338 139.768 227.339 149.546C225.339 159.324 220.933 168.449 214.521 176.096C221.201 185.16 225.196 195.921 226.048 207.148C226.901 218.376 224.576 229.616 219.341 239.585C214.106 249.553 206.171 257.847 196.444 263.518C186.717 269.189 175.59 272.009 164.336 271.654C153.082 271.299 142.155 267.784 132.805 261.511C123.454 255.238 116.058 246.461 111.461 236.182C106.864 225.904 105.253 214.539 106.811 203.388C108.37 192.236 113.035 181.749 120.273 173.124C112.292 162.294 108.183 149.096 108.607 135.65C109.03 122.204 113.962 109.29 122.609 98.9845H122.632Z" fill="#790E8B"/>
<path opacity="0.1" d="M228.547 139.43C228.142 152.876 223.21 165.792 214.549 176.085C221.226 185.149 225.218 195.909 226.069 207.134C226.919 218.359 224.594 229.598 219.359 239.564C214.124 249.531 206.191 257.823 196.466 263.494C186.74 269.164 175.616 271.984 164.364 271.63C153.112 271.277 142.186 267.765 132.836 261.495C123.485 255.226 116.088 246.452 111.489 236.176C106.89 225.901 105.274 214.539 106.828 203.389C108.381 192.239 113.04 181.751 120.273 173.124C112.581 162.672 228.759 132.701 228.547 139.43Z" fill="black"/>
</g>
<g opacity="0.2">
<path opacity="0.2" d="M457.14 275.201C457.14 275.585 457.099 275.957 457.059 276.347C453.886 275.091 450.773 273.743 447.718 272.303C446.087 272.086 444.57 271.346 443.394 270.196C442.506 269.743 441.613 269.279 440.731 268.815C440.931 268.395 441.157 267.988 441.407 267.595C443.125 264.881 445.725 263.185 448.6 263.277C451.475 263.369 453.961 265.224 455.502 268.031C456.675 270.233 457.241 272.708 457.14 275.201Z" fill="#3F3D56"/>
<path opacity="0.2" d="M457.609 260.946C457.552 263.444 456.83 265.881 455.519 268.008C453.801 270.711 451.2 272.412 448.325 272.32L447.753 272.28C446.121 272.063 444.605 271.324 443.428 270.173C442.634 269.415 441.963 268.538 441.441 267.573C440.292 265.357 439.73 262.884 439.808 260.39C439.887 257.895 440.603 255.462 441.888 253.323C443.606 250.608 446.212 248.907 449.081 248.999C451.951 249.091 454.448 250.946 455.983 253.753C457.155 255.963 457.717 258.446 457.609 260.946Z" fill="#3F3D56"/>
<path opacity="0.2" d="M458.069 246.708C458.272 240.268 454.449 234.921 449.53 234.766C444.611 234.61 440.458 239.705 440.254 246.145C440.051 252.585 443.874 257.932 448.793 258.087C453.712 258.243 457.865 253.148 458.069 246.708Z" fill="#3F3D56"/>
<path opacity="0.2" d="M458.514 232.455C458.717 226.015 454.895 220.669 449.975 220.513C445.056 220.358 440.903 225.452 440.7 231.892C440.496 238.332 444.319 243.679 449.238 243.834C454.158 243.99 458.31 238.895 458.514 232.455Z" fill="#3F3D56"/>
<path opacity="0.2" d="M458.965 218.203C459.168 211.763 455.345 206.416 450.426 206.261C445.507 206.105 441.354 211.2 441.15 217.64C440.947 224.08 444.77 229.426 449.689 229.582C454.608 229.737 458.761 224.643 458.965 218.203Z" fill="#3F3D56"/>
<path opacity="0.2" d="M419.758 119.339C418.588 117.752 417.532 116.086 416.596 114.351L440.124 111.247L414.804 110.634C412.541 105.274 411.397 99.5099 411.439 93.6929C411.481 87.8759 412.71 82.1287 415.05 76.8028L448.446 95.468L417.862 71.4535C420.948 66.4585 425.032 62.1539 429.858 58.8085C434.683 55.4632 440.147 53.1492 445.907 52.011C451.668 50.8728 457.601 50.935 463.336 52.1937C469.071 53.4523 474.485 55.8804 479.24 59.3261C483.994 62.7718 487.986 67.1612 490.968 72.2198C493.949 77.2783 495.855 82.8975 496.566 88.7259C497.277 94.5544 496.779 100.467 495.101 106.094C493.424 111.721 490.604 116.942 486.818 121.43C488.637 123.902 490.185 126.564 491.434 129.368L460.57 144.196L493.313 134.345C495.377 141.14 495.713 148.344 494.291 155.302C492.869 162.26 489.734 168.754 485.169 174.195C489.921 180.645 492.762 188.302 493.368 196.291C493.973 204.279 492.319 212.277 488.593 219.37C484.868 226.463 479.221 232.364 472.3 236.399C465.379 240.434 457.462 242.44 449.454 242.188C441.447 241.935 433.672 239.435 427.018 234.972C420.365 230.509 415.101 224.264 411.83 216.951C408.558 209.638 407.41 201.552 408.517 193.617C409.625 185.683 412.942 178.22 418.091 172.082C412.418 164.375 409.499 154.987 409.801 145.422C410.103 135.858 413.61 126.672 419.758 119.339Z" fill="#790E8B"/>
<path opacity="0.1" d="M495.134 148.102C494.847 157.674 491.336 166.869 485.169 174.195C489.921 180.645 492.762 188.302 493.368 196.291C493.973 204.279 492.319 212.277 488.593 219.37C484.868 226.462 479.221 232.364 472.3 236.399C465.379 240.434 457.462 242.44 449.454 242.188C441.447 241.935 433.672 239.435 427.018 234.972C420.365 230.509 415.101 224.264 411.83 216.951C408.558 209.638 407.41 201.552 408.517 193.617C409.625 185.683 412.942 178.22 418.091 172.082C412.604 164.636 495.283 143.314 495.134 148.102Z" fill="black"/>
</g>
<g opacity="0.2">
<path opacity="0.2" d="M335.045 230.5C335.045 230.884 335 231.256 334.96 231.645C331.787 230.389 328.673 229.041 325.618 227.602C323.989 227.384 322.474 226.645 321.3 225.494C320.407 225.042 319.519 224.578 318.637 224.114C318.834 223.693 319.058 223.286 319.307 222.894C321.025 220.185 323.631 218.484 326.5 218.576C329.37 218.667 331.861 220.523 333.402 223.329C334.578 225.531 335.145 228.006 335.045 230.5Z" fill="#3F3D56"/>
<path opacity="0.2" d="M335.469 216.245C335.412 218.742 334.69 221.18 333.379 223.306C331.661 226.01 329.06 227.711 326.185 227.619C325.985 227.619 325.796 227.619 325.613 227.579C323.983 227.362 322.468 226.622 321.294 225.471C320.496 224.716 319.824 223.838 319.301 222.871C318.152 220.656 317.59 218.182 317.669 215.687C317.748 213.193 318.466 210.76 319.754 208.622C321.472 205.907 324.072 204.206 326.947 204.298C329.822 204.389 332.308 206.245 333.82 209.051C335.001 211.259 335.57 213.743 335.469 216.245Z" fill="#3F3D56"/>
<path opacity="0.2" d="M335.492 201.452C335.685 195.009 331.852 189.666 326.93 189.518C322.008 189.37 317.862 194.474 317.668 200.917C317.475 207.36 321.308 212.703 326.23 212.851C331.152 212.999 335.298 207.895 335.492 201.452Z" fill="#3F3D56"/>
<path opacity="0.2" d="M336.382 187.753C336.586 181.313 332.763 175.966 327.843 175.811C322.924 175.655 318.771 180.75 318.568 187.19C318.364 193.63 322.187 198.976 327.106 199.132C332.026 199.287 336.179 194.193 336.382 187.753Z" fill="#3F3D56"/>
<path opacity="0.2" d="M336.839 173.495C337.042 167.055 333.219 161.708 328.3 161.552C323.381 161.397 319.228 166.492 319.024 172.932C318.821 179.372 322.644 184.718 327.563 184.874C332.482 185.029 336.635 179.935 336.839 173.495Z" fill="#3F3D56"/>
<path opacity="0.2" d="M297.635 74.6149C296.468 73.0268 295.411 71.36 294.473 69.6265L318.001 66.5223L292.664 65.9095C290.401 60.5502 289.256 54.7853 289.299 48.968C289.343 43.1507 290.573 37.4035 292.916 32.0785L326.323 50.7666L295.745 26.7521C298.841 21.7783 302.928 17.495 307.751 14.1688C312.574 10.8426 318.03 8.54484 323.78 7.41841C329.529 6.29199 335.449 6.36105 341.171 7.62131C346.892 8.88157 352.293 11.306 357.037 14.7438C361.782 18.1816 365.767 22.5591 368.747 27.6038C371.726 32.6485 373.635 38.2525 374.355 44.0669C375.075 49.8813 374.591 55.7817 372.932 61.4007C371.273 67.0197 368.475 72.2372 364.713 76.7283C366.534 79.2009 368.083 81.8622 369.335 84.6663L338.482 99.4942L371.219 89.6433C373.283 96.439 373.619 103.642 372.197 110.601C370.775 117.559 367.639 124.053 363.075 129.494C367.821 135.946 370.656 143.604 371.256 151.591C371.856 159.578 370.197 167.574 366.468 174.663C362.74 181.752 357.092 187.649 350.17 191.68C343.248 195.711 335.332 197.714 327.327 197.459C319.321 197.204 311.548 194.702 304.897 190.239C298.246 185.775 292.984 179.531 289.714 172.219C286.444 164.907 285.297 156.823 286.404 148.89C287.511 140.956 290.827 133.495 295.974 127.357C290.297 119.649 287.374 110.256 287.675 100.687C287.977 91.1185 291.484 81.9283 297.635 74.592V74.6149Z" fill="#790E8B"/>
<path opacity="0.1" d="M373.012 103.4C372.725 112.972 369.213 122.167 363.046 129.494C367.797 135.945 370.636 143.603 371.24 151.592C371.843 159.582 370.186 167.579 366.458 174.671C362.73 181.763 357.082 187.663 350.159 191.696C343.237 195.729 335.319 197.732 327.311 197.477C319.303 197.222 311.528 194.719 304.876 190.253C298.224 185.788 292.963 179.541 289.694 172.226C286.425 164.911 285.28 156.825 286.391 148.89C287.501 140.955 290.822 133.493 295.974 127.357C290.482 119.941 373.16 98.6123 373.012 103.4Z" fill="black"/>
</g>
<path d="M556.92 286.828V411.527C523.375 416.533 489.155 417.553 455.095 418.561C360.097 421.373 264.852 424.179 170.106 417.696C128.205 414.832 85.2676 409.815 48.5444 392.668V239.039C48.6818 133.085 48.1091 239.039 48.5444 132.764V94.626C48.5444 92.4843 49.3952 90.4302 50.9096 88.9158C52.4241 87.4013 54.4781 86.5505 56.6198 86.5505H548.845C550.986 86.5505 553.04 87.4013 554.555 88.9158C556.069 90.4302 556.92 92.4843 556.92 94.626V191.205C557.264 286.576 556.691 191.503 556.92 286.828Z" fill="#3F3D56"/>
<path opacity="0.3" d="M405.371 124.711H200.094C198.443 124.711 197.104 126.05 197.104 127.701V138.079C197.104 139.73 198.443 141.068 200.094 141.068H405.371C407.022 141.068 408.36 139.73 408.36 138.079V127.701C408.36 126.05 407.022 124.711 405.371 124.711Z" fill="#790E8B"/>
<path d="M394.002 133.571H393.653L393.521 133.463C393.958 132.941 394.199 132.282 394.202 131.601C394.196 131.043 394.024 130.499 393.708 130.038C393.393 129.577 392.948 129.219 392.43 129.011C391.911 128.802 391.343 128.752 390.796 128.866C390.249 128.98 389.748 129.253 389.357 129.651C388.965 130.049 388.7 130.555 388.595 131.103C388.489 131.652 388.549 132.219 388.766 132.734C388.983 133.249 389.347 133.688 389.813 133.996C390.279 134.304 390.826 134.467 391.385 134.465C392.063 134.462 392.719 134.223 393.24 133.789L393.366 133.898V134.23L395.548 136.418L396.201 135.765L394.002 133.571ZM391.385 133.571C390.995 133.573 390.613 133.458 390.288 133.242C389.964 133.026 389.71 132.719 389.56 132.359C389.41 131.999 389.37 131.603 389.446 131.22C389.521 130.838 389.708 130.486 389.984 130.21C390.259 129.934 390.61 129.746 390.992 129.669C391.375 129.593 391.771 129.632 392.132 129.781C392.492 129.929 392.8 130.182 393.017 130.506C393.233 130.83 393.349 131.211 393.349 131.601C393.351 131.86 393.301 132.116 393.203 132.356C393.105 132.595 392.96 132.813 392.777 132.996C392.595 133.179 392.378 133.324 392.139 133.423C391.9 133.522 391.643 133.572 391.385 133.571Z" fill="#444053"/>
<path opacity="0.7" d="M144.476 282.469H130.49C128.909 282.469 127.627 283.751 127.627 285.333V286.421C127.627 288.002 128.909 289.285 130.49 289.285H144.476C146.058 289.285 147.34 288.002 147.34 286.421V285.333C147.34 283.751 146.058 282.469 144.476 282.469Z" fill="#3F3D56"/>
<path opacity="0.3" d="M155.427 299.508H130.49C128.909 299.508 127.627 300.79 127.627 302.371V303.46C127.627 305.041 128.909 306.323 130.49 306.323H155.427C157.008 306.323 158.29 305.041 158.29 303.46V302.371C158.29 300.79 157.008 299.508 155.427 299.508Z" fill="#790E8B"/>
<path opacity="0.3" d="M186.096 290.991H130.49C128.909 290.991 127.627 292.273 127.627 293.855V294.943C127.627 296.525 128.909 297.807 130.49 297.807H186.096C187.678 297.807 188.96 296.525 188.96 294.943V293.855C188.96 292.273 187.678 290.991 186.096 290.991Z" fill="#790E8B"/>
<path d="M94.2537 299.296C93.8215 299.291 93.3927 299.372 92.9917 299.533C92.5908 299.695 92.2256 299.934 91.917 300.236C91.6085 300.539 91.3627 300.9 91.1936 301.297C91.0246 301.695 90.9357 302.122 90.9319 302.555C90.9185 303.134 90.6792 303.685 90.2652 304.091C89.8511 304.496 89.295 304.724 88.7155 304.725C89.2446 305.395 89.9167 305.938 90.6827 306.315C91.4487 306.691 92.2892 306.892 93.1426 306.902C93.7195 306.908 94.2919 306.8 94.8272 306.585C95.3625 306.37 95.8501 306.051 96.2623 305.648C96.6745 305.244 97.0031 304.763 97.2294 304.232C97.4557 303.702 97.5753 303.132 97.5813 302.555C97.5768 302.122 97.4872 301.695 97.3175 301.297C97.1478 300.899 96.9015 300.539 96.5925 300.236C96.2835 299.933 95.9179 299.695 95.5166 299.533C95.1153 299.372 94.6862 299.291 94.2537 299.296ZM109.448 289.124L107.959 287.664C107.751 287.459 107.472 287.345 107.18 287.345C106.889 287.345 106.609 287.459 106.401 287.664L96.4702 297.4L99.5171 300.39L109.437 290.653C109.54 290.555 109.622 290.437 109.679 290.306C109.735 290.175 109.765 290.034 109.766 289.891C109.767 289.749 109.739 289.607 109.685 289.475C109.63 289.344 109.55 289.224 109.448 289.124Z" fill="#790E8B"/>
<path opacity="0.7" d="M144.476 197.969H130.49C128.909 197.969 127.627 199.251 127.627 200.833V201.921C127.627 203.502 128.909 204.784 130.49 204.784H144.476C146.058 204.784 147.34 203.502 147.34 201.921V200.833C147.34 199.251 146.058 197.969 144.476 197.969Z" fill="#3F3D56"/>
<path opacity="0.3" d="M155.427 215.008H130.49C128.909 215.008 127.627 216.29 127.627 217.871V218.959C127.627 220.541 128.909 221.823 130.49 221.823H155.427C157.008 221.823 158.29 220.541 158.29 218.959V217.871C158.29 216.29 157.008 215.008 155.427 215.008Z" fill="#790E8B"/>
<path opacity="0.3" d="M186.096 206.485H130.49C128.909 206.485 127.627 207.767 127.627 209.349V210.437C127.627 212.019 128.909 213.301 130.49 213.301H186.096C187.678 213.301 188.96 212.019 188.96 210.437V209.349C188.96 207.767 187.678 206.485 186.096 206.485Z" fill="#790E8B"/>
<path d="M109.494 216.577L100.8 207.826C101.231 206.7 101.325 205.473 101.07 204.295C100.814 203.117 100.221 202.039 99.3624 201.193C98.451 200.289 97.2853 199.686 96.0212 199.462C94.7571 199.239 93.455 199.408 92.2893 199.945L96.4014 204.08L93.5378 206.944L89.3454 202.831C88.788 203.998 88.6081 205.31 88.8309 206.584C89.0536 207.858 89.6679 209.03 90.5882 209.939C91.4235 210.801 92.4943 211.397 93.6668 211.654C94.8392 211.911 96.0613 211.816 97.1803 211.382L105.857 220.139C105.943 220.23 106.047 220.303 106.162 220.353C106.278 220.402 106.402 220.428 106.527 220.428C106.653 220.428 106.777 220.402 106.892 220.353C107.007 220.303 107.111 220.23 107.197 220.139L109.397 217.928C109.503 217.855 109.592 217.758 109.656 217.646C109.721 217.533 109.759 217.408 109.768 217.279C109.778 217.15 109.758 217.02 109.71 216.899C109.663 216.779 109.589 216.671 109.494 216.583V216.577Z" fill="#790E8B"/>
<path opacity="0.7" d="M308.711 282.469H294.725C293.144 282.469 291.862 283.751 291.862 285.333V286.421C291.862 288.002 293.144 289.285 294.725 289.285H308.711C310.293 289.285 311.575 288.002 311.575 286.421V285.333C311.575 283.751 310.293 282.469 308.711 282.469Z" fill="#3F3D56"/>
<path opacity="0.3" d="M319.662 299.508H294.725C293.144 299.508 291.862 300.79 291.862 302.371V303.46C291.862 305.041 293.144 306.323 294.725 306.323H319.662C321.244 306.323 322.526 305.041 322.526 303.46V302.371C322.526 300.79 321.244 299.508 319.662 299.508Z" fill="#790E8B"/>
<path opacity="0.3" d="M350.332 290.991H294.725C293.144 290.991 291.862 292.273 291.862 293.855V294.943C291.862 296.525 293.144 297.807 294.725 297.807H350.332C351.913 297.807 353.195 296.525 353.195 294.943V293.855C353.195 292.273 351.913 290.991 350.332 290.991Z" fill="#790E8B"/>
<path d="M263.134 301.255C262.271 301.746 261.295 302.004 260.302 302.004C259.309 302.004 258.333 301.746 257.47 301.255C255.253 301.936 253.896 304.17 253.392 306.146H267.206C266.708 304.17 265.356 301.936 263.134 301.255ZM260.305 290.734C259.32 290.734 258.357 291.026 257.539 291.573C256.72 292.12 256.082 292.897 255.706 293.807C255.329 294.717 255.231 295.718 255.424 296.684C255.616 297.649 256.091 298.536 256.787 299.232C257.484 299.928 258.371 300.401 259.337 300.593C260.303 300.784 261.304 300.685 262.213 300.307C263.122 299.929 263.899 299.291 264.446 298.471C264.992 297.652 265.283 296.689 265.282 295.705C265.28 294.386 264.755 293.121 263.822 292.189C262.889 291.257 261.624 290.734 260.305 290.734ZM260.305 299.496C259.557 299.482 258.83 299.25 258.213 298.829C257.595 298.408 257.114 297.816 256.828 297.125H263.781C263.495 297.816 263.014 298.408 262.396 298.829C261.779 299.25 261.052 299.482 260.305 299.496Z" fill="#790E8B"/>
<path d="M270.379 298.603C269.653 299.012 268.847 299.26 268.017 299.328C267.186 299.396 266.351 299.284 265.568 298.998C265.215 299.608 264.771 300.161 264.251 300.636C265.411 301.166 266.388 302.029 267.057 303.116H274.451C274.222 302.075 273.727 301.111 273.013 300.32C272.299 299.529 271.391 298.937 270.379 298.603ZM267.55 288.076C266.714 288.076 265.892 288.285 265.158 288.686C264.425 289.086 263.803 289.664 263.351 290.367C264.103 290.803 264.754 291.392 265.263 292.097C265.771 292.802 266.125 293.606 266.301 294.456H271.026C270.737 295.144 270.255 295.733 269.638 296.152C269.021 296.571 268.295 296.802 267.55 296.816C267.143 296.814 266.739 296.741 266.358 296.598C266.292 297.002 266.188 297.399 266.049 297.784C266.534 297.94 267.04 298.017 267.55 298.013C268.87 298.013 270.135 297.489 271.069 296.555C272.002 295.622 272.527 294.356 272.527 293.036C272.527 291.716 272.002 290.45 271.069 289.517C270.135 288.583 268.87 288.059 267.55 288.059V288.076Z" fill="#790E8B"/>
<path opacity="0.7" d="M144.476 345.847H130.49C128.909 345.847 127.627 347.129 127.627 348.711V349.799C127.627 351.38 128.909 352.663 130.49 352.663H144.476C146.058 352.663 147.34 351.38 147.34 349.799V348.711C147.34 347.129 146.058 345.847 144.476 345.847Z" fill="#3F3D56"/>
<path opacity="0.3" d="M155.427 362.886H130.49C128.909 362.886 127.627 364.168 127.627 365.749V366.838C127.627 368.419 128.909 369.701 130.49 369.701H155.427C157.008 369.701 158.29 368.419 158.29 366.838V365.749C158.29 364.168 157.008 362.886 155.427 362.886Z" fill="#790E8B"/>
<path opacity="0.3" d="M186.096 354.369H130.49C128.909 354.369 127.627 355.651 127.627 357.233V358.321C127.627 359.903 128.909 361.185 130.49 361.185H186.096C187.678 361.185 188.96 359.903 188.96 358.321V357.233C188.96 355.651 187.678 354.369 186.096 354.369Z" fill="#790E8B"/>
<path d="M101.126 348.001H95.5022C95.2555 347.998 95.0107 348.043 94.7816 348.135C94.5525 348.226 94.3437 348.362 94.1672 348.535C93.9906 348.707 93.8497 348.912 93.7525 349.139C93.6553 349.366 93.6038 349.61 93.6008 349.856V350.257H93.2457C92.999 350.254 92.7541 350.3 92.525 350.391C92.296 350.483 92.0872 350.619 91.9106 350.791C91.734 350.963 91.5931 351.169 91.496 351.396C91.3988 351.622 91.3472 351.866 91.3442 352.113V365.646C91.3472 366.15 91.5485 366.632 91.9045 366.988C92.2604 367.343 92.7423 367.545 93.2457 367.548H103.028C103.274 367.545 103.518 367.493 103.744 367.396C103.971 367.299 104.176 367.158 104.348 366.981C104.519 366.804 104.655 366.596 104.746 366.367C104.837 366.137 104.882 365.893 104.878 365.646V365.291H105.284C105.531 365.288 105.774 365.237 106.001 365.139C106.227 365.042 106.432 364.901 106.604 364.725C106.776 364.548 106.911 364.339 107.002 364.11C107.093 363.881 107.138 363.636 107.134 363.39V354.014L101.126 348.001ZM101.126 350.097L105.044 354.014H101.126V350.097ZM103.383 365.646C103.388 365.746 103.353 365.844 103.287 365.919C103.221 365.994 103.128 366.04 103.028 366.047H93.2457C93.1417 366.042 93.0436 365.997 92.9705 365.923C92.8974 365.849 92.8546 365.75 92.8505 365.646V352.113C92.8578 352.014 92.9031 351.922 92.9767 351.856C93.0504 351.79 93.1467 351.754 93.2457 351.758H93.6008V363.785C93.6008 364.827 94.0933 365.308 95.13 365.308H103.383V365.646ZM105.634 363.39C105.64 363.489 105.607 363.587 105.542 363.662C105.476 363.737 105.384 363.783 105.284 363.791H95.5022C95.3983 363.785 95.3001 363.741 95.2271 363.667C95.154 363.593 95.1112 363.494 95.1071 363.39V349.856C95.1144 349.758 95.1596 349.665 95.2333 349.599C95.3069 349.533 95.4033 349.498 95.5022 349.501H99.6201V355.521H105.634V363.39Z" fill="#790E8B"/>
<path opacity="0.7" d="M308.711 197.969H294.725C293.144 197.969 291.862 199.251 291.862 200.833V201.921C291.862 203.502 293.144 204.784 294.725 204.784H308.711C310.293 204.784 311.575 203.502 311.575 201.921V200.833C311.575 199.251 310.293 197.969 308.711 197.969Z" fill="#3F3D56"/>
<path opacity="0.3" d="M319.662 215.008H294.725C293.144 215.008 291.862 216.29 291.862 217.871V218.959C291.862 220.541 293.144 221.823 294.725 221.823H319.662C321.244 221.823 322.526 220.541 322.526 218.959V217.871C322.526 216.29 321.244 215.008 319.662 215.008Z" fill="#790E8B"/>
<path opacity="0.3" d="M350.332 206.485H294.725C293.144 206.485 291.862 207.767 291.862 209.349V210.437C291.862 212.019 293.144 213.301 294.725 213.301H350.332C351.913 213.301 353.195 212.019 353.195 210.437V209.349C353.195 207.767 351.913 206.485 350.332 206.485Z" fill="#790E8B"/>
<path d="M261.92 202.385H255.402C254.87 202.386 254.36 202.599 253.984 202.975C253.608 203.352 253.397 203.863 253.397 204.395V215.42C253.397 215.952 253.609 216.461 253.985 216.837C254.36 217.213 254.87 217.424 255.402 217.424H272.446C272.978 217.424 273.488 217.213 273.864 216.837C274.24 216.461 274.451 215.952 274.451 215.42V206.634C274.449 206.103 274.238 205.594 273.862 205.218C273.486 204.843 272.978 204.631 272.446 204.63H263.924L261.92 202.373V202.385Z" fill="#790E8B"/>
<path opacity="0.7" d="M470.902 282.469H456.916C455.334 282.469 454.052 283.751 454.052 285.333V286.421C454.052 288.002 455.334 289.285 456.916 289.285H470.902C472.484 289.285 473.766 288.002 473.766 286.421V285.333C473.766 283.751 472.484 282.469 470.902 282.469Z" fill="#3F3D56"/>
<path opacity="0.3" d="M481.853 299.508H456.916C455.334 299.508 454.052 300.79 454.052 302.371V303.46C454.052 305.041 455.334 306.323 456.916 306.323H481.853C483.434 306.323 484.716 305.041 484.716 303.46V302.371C484.716 300.79 483.434 299.508 481.853 299.508Z" fill="#790E8B"/>
<path opacity="0.3" d="M512.522 290.991H456.916C455.334 290.991 454.052 292.273 454.052 293.855V294.943C454.052 296.525 455.334 297.807 456.916 297.807H512.522C514.104 297.807 515.386 296.525 515.386 294.943V293.855C515.386 292.273 514.104 290.991 512.522 290.991Z" fill="#790E8B"/>
<path d="M436.951 291.679L433.073 291.495L432.844 288.97C432.832 288.841 432.793 288.717 432.732 288.604C432.671 288.491 432.588 288.39 432.488 288.31C432.388 288.229 432.272 288.168 432.149 288.132C432.025 288.096 431.896 288.085 431.768 288.099L417.868 289.244C417.74 289.25 417.615 289.282 417.499 289.337C417.384 289.392 417.281 289.469 417.196 289.565C417.111 289.66 417.046 289.772 417.005 289.893C416.964 290.014 416.948 290.142 416.957 290.27L417.948 301.352C417.978 301.608 418.108 301.841 418.31 302.001C418.512 302.161 418.769 302.234 419.024 302.205L419.729 302.154L419.62 304.307C419.615 304.449 419.639 304.59 419.689 304.722C419.74 304.855 419.816 304.976 419.913 305.079C420.011 305.181 420.128 305.264 420.257 305.321C420.387 305.379 420.527 305.41 420.668 305.413L436.183 306.146C436.467 306.164 436.747 306.07 436.962 305.884C437.176 305.697 437.308 305.433 437.329 305.149L437.982 292.778C437.986 292.638 437.963 292.499 437.914 292.368C437.865 292.237 437.79 292.117 437.694 292.015C437.598 291.913 437.483 291.83 437.356 291.773C437.228 291.715 437.091 291.683 436.951 291.679ZM420.273 291.931L419.941 298.265L419.116 299.41L418.36 291.043V290.991C418.375 290.878 418.427 290.774 418.507 290.694C418.588 290.614 418.694 290.563 418.807 290.55L431.075 289.548C431.188 289.537 431.302 289.568 431.394 289.636C431.486 289.704 431.549 289.803 431.573 289.915L431.693 291.358L421.384 290.865C421.241 290.862 421.099 290.887 420.966 290.939C420.833 290.991 420.711 291.069 420.608 291.168C420.505 291.267 420.422 291.385 420.365 291.516C420.307 291.647 420.276 291.788 420.273 291.931ZM435.966 303.064L431.957 298.385L430.198 300L426.951 296.203L421.184 302.343L421.676 292.99C421.704 292.862 421.777 292.748 421.882 292.67C421.988 292.592 422.118 292.555 422.249 292.566L435.937 293.231C436.063 293.233 436.184 293.284 436.274 293.372C436.365 293.461 436.418 293.58 436.424 293.706L435.966 303.064Z" fill="#790E8B"/>
<path d="M433.492 297.125C433.79 297.126 434.081 297.039 434.33 296.874C434.578 296.709 434.772 296.474 434.887 296.199C435.002 295.924 435.033 295.621 434.975 295.329C434.918 295.036 434.775 294.767 434.564 294.556C434.354 294.345 434.086 294.201 433.793 294.142C433.501 294.083 433.198 294.113 432.922 294.227C432.647 294.341 432.411 294.534 432.245 294.782C432.079 295.029 431.991 295.321 431.991 295.619C431.992 296.017 432.151 296.398 432.432 296.68C432.713 296.962 433.093 297.122 433.492 297.125Z" fill="#790E8B"/>
<path opacity="0.7" d="M472.265 197.969H458.279C456.698 197.969 455.416 199.251 455.416 200.833V201.921C455.416 203.502 456.698 204.784 458.279 204.784H472.265C473.847 204.784 475.129 203.502 475.129 201.921V200.833C475.129 199.251 473.847 197.969 472.265 197.969Z" fill="#3F3D56"/>
<path opacity="0.3" d="M483.216 215.008H458.279C456.698 215.008 455.416 216.29 455.416 217.871V218.959C455.416 220.541 456.698 221.823 458.279 221.823H483.216C484.797 221.823 486.079 220.541 486.079 218.959V217.871C486.079 216.29 484.797 215.008 483.216 215.008Z" fill="#790E8B"/>
<path opacity="0.3" d="M513.885 206.485H458.279C456.698 206.485 455.416 207.767 455.416 209.349V210.437C455.416 212.019 456.698 213.301 458.279 213.301H513.885C515.467 213.301 516.749 212.019 516.749 210.437V209.349C516.749 207.767 515.467 206.485 513.885 206.485Z" fill="#790E8B"/>
<path d="M436.739 207.258C438.399 207.258 439.746 205.912 439.746 204.252C439.746 202.591 438.399 201.245 436.739 201.245C435.078 201.245 433.732 202.591 433.732 204.252C433.732 205.912 435.078 207.258 436.739 207.258Z" fill="#790E8B"/>
<path d="M434.431 207.797L428.463 211.772L420.193 206.262V204.252L428.463 209.767L433.217 206.6C432.768 205.922 432.525 205.13 432.514 204.317C432.504 203.505 432.728 202.707 433.159 202.018H419.947C419.414 202.02 418.903 202.232 418.527 202.609C418.15 202.985 417.938 203.496 417.936 204.028V216.56C417.938 217.092 418.15 217.603 418.527 217.979C418.903 218.356 419.414 218.568 419.947 218.57H436.991C437.523 218.568 438.033 218.356 438.409 217.979C438.784 217.602 438.995 217.092 438.995 216.56V207.854C438.31 208.29 437.512 208.519 436.7 208.513C435.887 208.507 435.093 208.266 434.414 207.82L434.431 207.797Z" fill="#790E8B"/>
<path d="M291.885 430.135C300.134 430.135 306.821 428.851 306.821 427.266C306.821 425.681 300.134 424.397 291.885 424.397C283.635 424.397 276.948 425.681 276.948 427.266C276.948 428.851 283.635 430.135 291.885 430.135Z" fill="#790E8B"/>
<path d="M291.638 428.32C292.6 428.32 293.379 427.302 293.379 426.046C293.379 424.79 292.6 423.772 291.638 423.772C290.677 423.772 289.897 424.79 289.897 426.046C289.897 427.302 290.677 428.32 291.638 428.32Z" fill="#3F3D56"/>
<path d="M291.638 425.536C292.6 425.536 293.379 424.518 293.379 423.263C293.379 422.007 292.6 420.989 291.638 420.989C290.677 420.989 289.897 422.007 289.897 423.263C289.897 424.518 290.677 425.536 291.638 425.536Z" fill="#3F3D56"/>
<path d="M291.638 422.753C292.6 422.753 293.379 421.735 293.379 420.479C293.379 419.224 292.6 418.206 291.638 418.206C290.677 418.206 289.897 419.224 289.897 420.479C289.897 421.735 290.677 422.753 291.638 422.753Z" fill="#3F3D56"/>
<path d="M291.638 419.969C292.6 419.969 293.379 418.951 293.379 417.696C293.379 416.44 292.6 415.422 291.638 415.422C290.677 415.422 289.897 416.44 289.897 417.696C289.897 418.951 290.677 419.969 291.638 419.969Z" fill="#3F3D56"/>
<path d="M291.638 417.192C292.6 417.192 293.379 416.174 293.379 414.918C293.379 413.662 292.6 412.644 291.638 412.644C290.677 412.644 289.897 413.662 289.897 414.918C289.897 416.174 290.677 417.192 291.638 417.192Z" fill="#3F3D56"/>
<path d="M291.638 414.408C292.6 414.408 293.379 413.39 293.379 412.135C293.379 410.879 292.6 409.861 291.638 409.861C290.677 409.861 289.897 410.879 289.897 412.135C289.897 413.39 290.677 414.408 291.638 414.408Z" fill="#3F3D56"/>
<path d="M291.638 411.625C292.6 411.625 293.379 410.607 293.379 409.351C293.379 408.095 292.6 407.077 291.638 407.077C290.677 407.077 289.897 408.095 289.897 409.351C289.897 410.607 290.677 411.625 291.638 411.625Z" fill="#3F3D56"/>
<path d="M298.145 390.314C298.384 390.011 298.6 389.692 298.792 389.357L294.21 388.607L299.147 388.647C299.62 387.616 299.879 386.499 299.906 385.365C299.934 384.23 299.73 383.102 299.307 382.049L292.681 385.486L298.792 380.99C298.221 379.997 297.451 379.133 296.53 378.451C295.61 377.769 294.559 377.285 293.443 377.028C292.326 376.771 291.169 376.747 290.043 376.957C288.917 377.168 287.847 377.608 286.899 378.251C285.951 378.894 285.146 379.726 284.534 380.694C283.923 381.662 283.517 382.746 283.343 383.879C283.169 385.011 283.231 386.166 283.524 387.274C283.817 388.381 284.335 389.416 285.046 390.314C284.678 390.785 284.359 391.294 284.096 391.831L290.029 394.913L283.729 392.794C283.284 394.105 283.174 395.507 283.408 396.872C283.642 398.237 284.213 399.523 285.069 400.611C284.103 401.84 283.503 403.315 283.336 404.869C283.169 406.422 283.442 407.992 284.125 409.397C284.808 410.803 285.873 411.988 287.197 412.817C288.522 413.646 290.053 414.086 291.616 414.086C293.178 414.086 294.709 413.646 296.034 412.817C297.358 411.988 298.423 410.803 299.106 409.397C299.789 407.992 300.062 406.422 299.895 404.869C299.728 403.315 299.128 401.84 298.162 400.611C299.318 399.142 299.947 397.327 299.947 395.457C299.947 393.587 299.318 391.771 298.162 390.302L298.145 390.314Z" fill="#790E8B"/>
<path opacity="0.1" d="M283.271 395.462C283.265 397.333 283.893 399.149 285.052 400.617C284.086 401.845 283.486 403.321 283.319 404.875C283.152 406.428 283.425 407.998 284.108 409.403C284.791 410.809 285.856 411.994 287.18 412.823C288.505 413.652 290.036 414.092 291.598 414.092C293.161 414.092 294.692 413.652 296.017 412.823C297.341 411.994 298.406 410.809 299.089 409.403C299.772 407.998 300.045 406.428 299.878 404.875C299.711 403.321 299.111 401.845 298.145 400.617C299.261 399.197 283.271 394.529 283.271 395.462Z" fill="black"/>
<path d="M430.691 223.495C430.446 223.001 430.254 222.483 430.118 221.949C430.061 221.336 430.301 220.529 429.757 220.231C429.454 220.065 429.03 220.191 428.761 219.973C428.595 219.78 428.493 219.54 428.469 219.286C428.335 218.806 428.053 218.38 427.661 218.071C427.27 217.762 426.791 217.586 426.292 217.568C426.865 216.016 428.973 215.638 429.901 214.269C430.364 213.587 430.216 212.333 429.397 212.327C429.198 212.334 429.003 212.383 428.824 212.47L425.771 213.73C425.183 213.961 424.609 214.227 424.053 214.526C422.375 215.483 421.121 217.035 419.992 218.61C418.925 220.002 418.074 221.546 417.467 223.192C417.125 224.206 416.943 225.266 416.928 226.336C416.928 226.445 416.928 226.554 416.928 226.657C416.43 226.743 416.023 226.96 415.502 227.063L414.317 230.196C414.16 230.72 413.897 231.205 413.543 231.622C413.281 231.862 413.002 232.082 412.707 232.281C412.106 232.795 411.639 233.448 411.349 234.184C411.058 234.92 410.952 235.716 411.041 236.502C409.968 236.923 409.096 237.736 408.601 238.776C408.105 239.816 408.023 241.005 408.372 242.103C407.482 242.296 406.657 242.712 405.974 243.314C405.292 243.915 404.774 244.682 404.471 245.54C404.389 245.934 404.215 246.303 403.962 246.616C403.574 246.914 403.092 247.063 402.604 247.034C401.264 247.12 400.096 248.18 398.887 247.607C397.511 246.962 395.972 246.747 394.472 246.989C394.162 247.063 393.844 247.092 393.527 247.075C393.256 247.027 392.995 246.936 392.753 246.805C392.21 246.483 391.618 246.249 391.001 246.112C390.692 246.046 390.37 246.072 390.075 246.186C389.78 246.3 389.525 246.497 389.34 246.754C388.916 246.29 388.664 245.689 388.28 245.19C388.108 244.925 387.867 244.713 387.582 244.577C387.297 244.44 386.98 244.385 386.665 244.417C387.066 244.056 386.665 243.335 386.133 243.209C385.596 243.162 385.056 243.181 384.523 243.266C383.126 243.266 382.049 241.983 380.692 241.645C379.443 241.342 377.777 241.708 377.135 240.586C376.935 240.225 376.877 239.755 376.562 239.486C376.491 239.182 376.352 238.898 376.156 238.655C375.64 238.083 374.776 237.991 374.002 238.014C373.152 238.038 372.309 238.183 371.5 238.444C371.5 238.346 371.448 238.237 371.414 238.123C370.923 236.696 369.94 235.489 368.642 234.721C367.634 234.126 366.54 233.69 365.4 233.426C365.4 233.323 365.4 233.226 365.4 233.123C365.382 231.677 365.606 230.239 366.064 228.868C366.11 228.719 366.167 228.57 366.219 228.421C368.82 227.741 371.195 226.386 373.102 224.492C375.01 222.598 376.382 220.233 377.08 217.637C377.778 215.041 377.777 212.306 377.076 209.711C376.376 207.116 375.001 204.752 373.092 202.86C373.088 202.551 373.048 202.243 372.971 201.944C372.804 201.287 372.491 200.676 372.055 200.157C371.356 198.599 370.268 197.912 368.876 197.259C368.476 197.07 368.052 196.886 367.605 196.686C365.389 195.689 363.247 194.223 360.732 194.229C358.441 194.229 356.231 195.495 353.963 195.449H353.791H353.625H353.419C352.783 195.374 352.021 195.226 351.603 195.712C351.468 195.905 351.36 196.115 351.282 196.337C351.25 196.41 351.211 196.481 351.168 196.549C351.083 196.689 350.986 196.822 350.876 196.944C350.143 197.746 348.911 198.089 347.897 198.628C345.607 199.802 344.106 202.196 343.51 204.704C342.915 207.213 343.121 209.859 343.568 212.402C343.797 213.673 344.289 215.116 345.194 215.918C345.194 215.918 337.537 221.365 338.934 222.138C339.696 222.562 342.869 220.552 345.601 218.633C345.629 218.747 345.652 218.868 345.687 218.982C346.012 220.205 346.43 221.402 346.935 222.562C347.508 223.931 348.333 225.425 349.759 225.821C350.074 225.908 350.4 225.945 350.727 225.929H350.979C351.05 228.025 350.828 230.121 350.32 232.155C349.489 232.107 348.666 232.335 347.978 232.802C347.716 233.059 347.386 233.234 347.027 233.306C346.655 233.261 346.31 233.092 346.048 232.825C345.02 232.085 343.771 231.717 342.507 231.784C341.242 231.851 340.038 232.347 339.095 233.192C336.323 235.809 336.638 240.918 333.367 242.899C332.474 243.443 331.328 243.736 330.802 244.646C330.675 244.937 330.528 245.219 330.361 245.488C330.144 245.732 329.879 245.927 329.582 246.061C328.638 246.484 327.74 247.002 326.901 247.607C326.482 247.914 326.13 248.303 325.865 248.75C325.6 249.197 325.429 249.692 325.361 250.207C325.348 250.961 325.509 251.708 325.83 252.389C326.318 253.588 326.916 254.738 327.617 255.826C327.237 256.318 326.988 256.9 326.896 257.515C326.666 259.125 327.434 260.711 327.52 262.338C327.594 263.758 327.142 265.144 326.89 266.542C325.882 272.005 327.812 277.538 329.753 282.727C330.128 283.57 330.36 284.47 330.441 285.39C330.492 287.108 329.524 288.637 329.255 290.31C328.682 293.826 331.277 297.137 331.334 300.693C331.334 302.337 330.842 304.004 331.254 305.59C331.523 306.65 332.182 307.56 332.651 308.551C333.476 310.304 333.7 312.291 334.49 314.061C335.435 315.987 336.834 317.654 338.568 318.917C339.559 322.062 338.15 325.859 338.568 329.227C339.106 329.013 339.65 328.822 340.2 328.654C339.859 333.659 341.123 338.643 343.808 342.88C344.696 344.266 345.738 345.561 346.408 347.067C346.843 348.14 347.183 349.25 347.422 350.383C348.38 354.381 349.335 358.375 350.286 362.365C351.065 365.6 351.849 368.894 351.614 372.215C351.454 374.506 350.87 377.124 352.29 378.956C352.632 379.305 352.92 379.702 353.144 380.136C353.281 380.646 353.281 381.184 353.144 381.694C352.449 385.557 351.975 389.456 351.723 393.372C351.403 393.802 351.082 394.237 350.79 394.666C348.436 398.103 347.302 402.232 346.385 406.304C344.696 414.305 343.708 422.438 343.43 430.611C342.252 431.68 341.237 432.917 340.418 434.282C339.186 436.573 339.026 439.265 338.894 441.865C338.842 442.286 338.889 442.714 339.032 443.113C339.345 443.563 339.795 443.9 340.315 444.076L341.025 444.413C340.87 444.986 340.733 445.559 340.612 446.16C339.707 445.141 338.098 443.526 337.823 444.706C336.918 448.653 336.427 452.684 336.357 456.733C336.325 456.888 336.33 457.049 336.371 457.202C336.412 457.355 336.489 457.496 336.595 457.614C336.701 457.732 336.833 457.824 336.98 457.882C337.128 457.94 337.287 457.962 337.445 457.947C341.379 458.644 345.368 458.985 349.364 458.966C352.6 458.966 355.83 458.703 359.054 458.457L362.359 458.205C365.757 458.023 369.139 457.603 372.479 456.95C373.939 456.63 375.446 456.177 376.545 455.152C377.645 454.127 378.183 452.374 377.427 451.074C376.505 449.505 374.352 449.39 372.553 449.138C370.771 448.888 369.044 448.338 367.445 447.512C367.084 447.329 366.734 447.122 366.385 446.939C366.477 446.939 366.574 446.893 366.66 446.859C368.206 446.338 369.438 445.141 370.892 444.425C372.611 443.594 374.506 443.405 376.373 443.171C378.241 442.936 380.165 442.598 381.717 441.533C383.172 440.536 384.203 438.721 383.865 437.014C383.842 436.894 383.811 436.775 383.773 436.659C383.2 434.809 381.196 433.795 379.329 433.337C377.462 432.879 375.434 432.604 373.922 431.401L373.699 431.224C373.573 431.115 373.441 431.012 373.304 430.903C373.637 430.34 373.791 429.688 373.745 429.036C373.664 428.011 373.069 427.106 372.662 426.172C371.866 424.311 371.803 422.232 371.585 420.221C371.047 415.164 369.495 410.285 368.327 405.331C368.195 404.758 368.069 404.185 367.943 403.612C369.083 401.245 370.48 399.009 372.107 396.946C373.969 394.619 375.333 391.935 376.116 389.059C376.356 388.177 376.534 387.284 376.717 386.385C378.787 376.041 380.741 365.681 382.582 355.303C382.886 353.824 383.061 352.322 383.103 350.813C383.585 349.444 383.846 348.008 383.876 346.557C384.415 344.455 384.959 342.25 384.518 340.876C384.208 339.902 384.054 336.575 383.882 333.385C383.931 331.674 383.828 329.962 383.573 328.27C383.521 327.978 383.464 327.697 383.401 327.405C383.366 327.233 383.332 327.09 383.298 326.976C383.056 326.016 382.718 325.084 382.29 324.192C382.071 323.659 381.818 323.141 381.534 322.64C381.364 322.344 381.172 322.061 380.961 321.793C382.153 321.843 383.342 321.954 384.523 322.125C384.81 322.165 385.165 322.188 385.342 321.953C385.416 321.818 385.452 321.666 385.445 321.512C385.501 320.16 385.18 318.82 384.518 317.64C384.059 316.827 383.424 316.037 383.441 315.103C383.472 314.668 383.578 314.242 383.756 313.843L385.342 309.582C386.688 305.98 386.047 301.804 386.746 298.024C387.291 295.071 387.639 292.084 387.788 289.084C387.92 286.524 387.839 283.746 386.299 281.696C385.854 281.201 385.47 280.655 385.153 280.069C384.93 279.448 384.836 278.787 384.878 278.128C384.852 274.115 384.932 270.106 385.119 266.101C391.863 265.911 398.579 265.145 405.193 263.81C405.974 263.676 406.742 263.469 407.484 263.191C408.302 262.8 409.071 262.313 409.775 261.742C412.026 260.116 414.311 258.46 416.023 256.273C418.058 253.619 419.336 250.464 419.723 247.143C421.35 245.637 422.215 243.495 423.028 241.416C423.43 240.538 423.685 239.599 423.784 238.638C423.824 237.653 423.177 236.622 423.36 235.654C423.673 233.987 424.514 232.465 425.76 231.313C426.025 231.125 426.225 230.859 426.332 230.551C426.369 230.295 426.323 230.035 426.201 229.807L426.149 229.721C426.31 229.624 426.458 229.52 426.613 229.417C427.146 229.039 427.655 228.621 428.154 228.215C428.916 227.64 429.589 226.957 430.153 226.187C430.431 225.804 430.623 225.365 430.716 224.9C430.809 224.436 430.8 223.956 430.691 223.495ZM357.204 443.016C357.067 443.016 356.929 443.016 356.798 443.05C356.296 443.122 355.806 443.262 355.343 443.468L355.234 443.526C355.864 442.163 356.46 440.777 356.998 439.368C357.061 439.202 357.118 439.036 357.181 438.864L357.113 439.803C356.994 440.873 357.025 441.954 357.204 443.016Z" fill="url(#paint0_linear)"/>
<path d="M365.4 234.303C365.457 236.525 366.213 238.678 366.328 240.9C359.782 241.227 353.315 238.037 346.855 239.022C348.671 237.848 349.639 235.734 350.211 233.655C350.937 230.968 351.153 228.169 350.847 225.402C350.829 225.25 350.803 225.099 350.767 224.95C350.526 223.862 349.902 222.321 350.068 221.468C350.291 220.322 351.357 220.557 352.319 220.62C355.25 220.853 358.167 221.235 361.059 221.766C361.815 221.897 369.151 223.73 369.266 223.541C367.976 225.604 366.911 227.798 366.087 230.087C365.623 231.444 365.391 232.869 365.4 234.303Z" fill="#EE8E9E"/>
<path d="M430.147 227.43C429.585 228.198 428.911 228.878 428.148 229.446C427.65 229.853 427.14 230.271 426.607 230.643C425.658 231.378 424.525 231.84 423.331 231.978C421.774 232.081 418.458 231.164 417.49 229.83C417.076 229.159 416.876 228.378 416.917 227.59C416.933 226.526 417.114 225.471 417.455 224.463C418.062 222.818 418.913 221.273 419.981 219.881C421.126 218.312 422.364 216.772 424.042 215.821C424.598 215.521 425.172 215.255 425.76 215.025L428.812 213.776C428.991 213.687 429.186 213.637 429.385 213.627C430.204 213.627 430.353 214.887 429.889 215.563C428.961 216.926 426.871 217.281 426.281 218.845C426.776 218.86 427.253 219.032 427.644 219.336C428.035 219.639 428.32 220.059 428.457 220.534C428.481 220.787 428.583 221.025 428.749 221.216C429.019 221.428 429.442 221.308 429.746 221.474C430.29 221.76 430.05 222.568 430.107 223.192C430.243 223.722 430.435 224.237 430.68 224.727C430.794 225.189 430.805 225.67 430.713 226.137C430.621 226.604 430.428 227.046 430.147 227.43Z" fill="#EE8E9E"/>
<path d="M339.856 450.421C340.36 449.917 341.185 450.003 341.89 450.112C345.669 450.708 349.489 451.016 353.316 451.034C353.797 448.697 352.405 446.452 351.958 444.081C351.894 443.474 351.739 442.879 351.5 442.317C350.962 441.286 349.747 440.811 348.608 440.599C346.552 440.164 343.333 439.402 342.182 441.481C340.801 443.95 340.36 447.638 339.856 450.421Z" fill="#65617D"/>
<path d="M381.717 441.584C380.165 442.644 378.241 442.97 376.373 443.211C374.506 443.451 372.588 443.634 370.893 444.465C369.438 445.187 368.206 446.366 366.66 446.882C365.225 447.277 363.714 447.301 362.267 446.951C360.549 446.624 358.682 445.994 357.748 444.494C356.912 443.165 356.998 441.475 357.113 439.912C357.25 438.142 357.382 436.361 357.508 434.585C357.502 434.136 357.617 433.693 357.84 433.303C359.094 431.47 362.147 434.064 363.779 434.064C366.368 434.064 369.146 432.655 371.007 430.943C371.174 430.772 371.367 430.629 371.58 430.519C372.319 430.187 373.057 430.8 373.71 431.332L373.934 431.51C375.446 432.707 377.473 432.953 379.34 433.44C381.207 433.927 383.206 434.9 383.785 436.745C383.823 436.859 383.854 436.976 383.876 437.094C384.203 438.783 383.155 440.588 381.717 441.584Z" fill="#3F3D56"/>
<path d="M381.717 441.584C380.165 442.644 378.241 442.97 376.373 443.211C374.506 443.451 372.588 443.634 370.893 444.465C369.438 445.187 368.206 446.366 366.66 446.882C365.225 447.277 363.714 447.301 362.267 446.951C360.549 446.624 358.682 445.994 357.748 444.494C356.912 443.165 356.998 441.475 357.113 439.912C357.25 438.142 357.382 436.361 357.508 434.585C357.502 434.136 357.617 433.693 357.84 433.303C359.094 431.47 362.147 434.064 363.779 434.064C366.368 434.064 369.146 432.655 371.007 430.943C371.174 430.772 371.367 430.629 371.58 430.519C372.319 430.187 373.057 430.8 373.71 431.332L373.934 431.51C375.446 432.707 377.473 432.953 379.34 433.44C381.207 433.927 383.206 434.9 383.785 436.745C383.823 436.859 383.854 436.976 383.876 437.094C384.203 438.783 383.155 440.588 381.717 441.584Z" fill="#434175"/>
<path d="M381.717 442.18C380.165 443.239 378.241 443.572 376.374 443.812C374.506 444.053 372.588 444.23 370.893 445.061C369.438 445.782 368.206 446.962 366.66 447.478C365.225 447.873 363.714 447.896 362.267 447.546C360.42 447.159 358.797 446.063 357.748 444.494C356.912 443.165 356.998 441.475 357.113 439.912C357.25 438.142 357.382 436.361 357.508 434.585C357.502 434.136 357.617 433.693 357.84 433.303C359.094 431.47 362.147 434.064 363.779 434.064C366.368 434.064 369.146 432.655 371.007 430.943C371.174 430.772 371.367 430.629 371.58 430.519C372.319 430.187 373.057 430.8 373.71 431.332C373.282 432.663 372.671 433.927 371.895 435.089C371.267 436.074 370.427 436.905 369.436 437.521C368.445 438.138 367.328 438.524 366.168 438.652C365.022 438.738 363.825 438.509 362.731 438.806C361.637 439.104 360.572 440.25 360.967 441.338C361.362 442.426 362.72 442.627 363.831 442.69C365.405 442.87 367 442.758 368.533 442.357C369.449 442.054 370.291 441.55 371.179 441.178C374.97 439.608 379.77 440.485 382.897 437.827C383.195 437.557 383.515 437.312 383.853 437.094C384.684 438.806 383.155 441.212 381.717 442.18Z" fill="#E8EAF2"/>
<path opacity="0.05" d="M381.717 442.18C380.165 443.239 378.241 443.572 376.374 443.812C374.506 444.053 372.588 444.23 370.893 445.061C369.438 445.782 368.206 446.962 366.66 447.478C365.225 447.873 363.714 447.896 362.267 447.546C360.42 447.159 358.797 446.063 357.748 444.494C356.912 443.165 356.998 441.475 357.113 439.912C357.25 438.142 357.382 436.361 357.508 434.585C357.502 434.136 357.617 433.693 357.84 433.303C359.094 431.47 362.147 434.064 363.779 434.064C366.368 434.064 369.146 432.655 371.007 430.943C371.174 430.772 371.367 430.629 371.58 430.519C372.319 430.187 373.057 430.8 373.71 431.332C373.282 432.663 372.671 433.927 371.895 435.089C371.267 436.074 370.427 436.905 369.436 437.521C368.445 438.138 367.328 438.524 366.168 438.652C365.022 438.738 363.825 438.509 362.731 438.806C361.637 439.104 360.572 440.25 360.967 441.338C361.362 442.426 362.72 442.627 363.831 442.69C365.405 442.87 367 442.758 368.533 442.357C369.449 442.054 370.291 441.55 371.179 441.178C374.97 439.608 379.77 440.485 382.897 437.827C383.195 437.557 383.515 437.312 383.853 437.094C384.684 438.806 383.155 441.212 381.717 442.18Z" fill="black"/>
<path d="M340.567 326.134C339.368 332.059 340.513 338.218 343.762 343.316C344.65 344.69 345.692 345.985 346.363 347.479C346.798 348.549 347.138 349.654 347.376 350.784L350.24 362.697C351.019 365.916 351.803 369.192 351.569 372.496C351.408 374.787 350.824 377.382 352.244 379.203C352.586 379.549 352.874 379.945 353.098 380.377C353.235 380.883 353.235 381.417 353.098 381.923C351.643 390.577 350.561 399.621 353.189 407.988C355.578 415.577 355.715 423.984 357.743 431.67C357.907 432.647 358.341 433.557 358.997 434.299C359.541 434.753 360.191 435.06 360.887 435.193C363.877 435.909 367.032 435.072 369.816 433.784C371.774 432.873 373.882 431.281 373.716 429.133C373.636 428.108 373.04 427.209 372.634 426.27C371.837 424.42 371.774 422.358 371.557 420.353C371.018 415.325 369.466 410.468 368.298 405.554C367.13 400.64 366.328 395.491 367.319 390.531C369.347 380.275 372.591 370.296 376.981 360.807C377.173 360.303 377.476 359.849 377.868 359.478C378.308 359.227 378.727 358.942 379.123 358.625C379.425 358.154 379.621 357.622 379.695 357.067C380.131 355.498 381.413 354.335 382.29 352.96C384.483 349.478 383.79 345.017 383.71 340.905C383.63 336.895 384.203 332.886 383.55 328.923C382.897 324.96 380.663 320.939 376.855 319.725C374.97 319.112 372.931 319.255 370.961 319.45C360.52 320.481 350.372 322.377 340.567 326.134Z" fill="#696791"/>
<path opacity="0.1" d="M340.567 326.707C339.368 332.632 340.513 338.791 343.762 343.888C344.65 345.263 345.692 346.557 346.363 348.052C346.798 349.121 347.138 350.227 347.376 351.357L350.24 363.269C351.019 366.488 351.803 369.764 351.569 373.069C351.408 375.36 350.824 377.954 352.244 379.775C352.586 380.122 352.874 380.518 353.098 380.95C353.235 381.456 353.235 381.99 353.098 382.496C351.643 391.15 350.561 400.193 353.189 408.561C355.578 416.149 355.715 424.557 357.743 432.243C357.907 433.219 358.341 434.13 358.997 434.872C359.541 435.325 360.191 435.633 360.887 435.765C363.877 436.481 367.032 435.645 369.816 434.356C371.774 433.446 373.882 431.853 373.716 429.706C373.636 428.681 373.04 427.781 372.634 426.842C371.837 424.992 371.774 422.93 371.557 420.926C371.018 415.897 369.466 411.041 368.298 406.127C367.13 401.213 366.328 396.064 367.319 391.104C369.347 380.847 372.591 370.869 376.981 361.379C377.173 360.875 377.476 360.421 377.868 360.051C378.308 359.8 378.727 359.514 379.123 359.197C379.425 358.726 379.621 358.195 379.695 357.64C380.131 356.07 381.413 354.908 382.29 353.533C384.483 350.051 383.79 345.589 383.71 341.477C383.63 337.468 384.203 333.459 383.55 329.496C382.897 325.532 380.663 321.512 376.855 320.298C374.97 319.685 372.931 319.828 370.961 320.023C360.52 321.054 350.372 322.949 340.567 326.707Z" fill="black"/>
<path d="M383.109 351.214C383.078 352.767 382.903 354.314 382.588 355.835C380.743 366.145 378.781 376.454 376.7 386.763C376.517 387.656 376.339 388.55 376.099 389.426C375.314 392.289 373.95 394.959 372.089 397.272C363.413 408.091 362.662 423.801 357.955 436.848C357.634 437.73 357.319 438.617 356.981 439.488C356.129 441.697 355.16 443.86 354.077 445.966C353.958 446.269 353.76 446.536 353.504 446.739C353.213 446.888 352.886 446.954 352.559 446.928C348.322 446.949 344.137 445.997 340.326 444.144C339.783 443.941 339.324 443.559 339.026 443.062C338.882 442.664 338.835 442.238 338.888 441.819C339.02 439.236 339.181 436.556 340.412 434.282C341.231 432.923 342.246 431.691 343.424 430.628C343.699 422.497 344.688 414.405 346.38 406.447C347.296 402.392 348.43 398.297 350.784 394.873C352.502 392.341 355.011 389.844 354.701 386.791C354.57 385.451 354.008 383.785 355.097 383C355.572 382.651 356.276 382.605 356.603 382.112C356.731 381.88 356.803 381.621 356.815 381.356C357.038 379.262 356.907 377.146 356.425 375.096C356.03 373.756 355.718 372.392 355.492 371.013C355.386 370.321 355.423 369.614 355.599 368.937C355.775 368.26 356.087 367.625 356.517 367.072C356.574 364.283 356.517 361.391 356.557 358.607C356.668 357.022 356.534 355.428 356.162 353.882C355.956 353.155 355.629 352.456 355.469 351.712C354.896 349.037 356.339 345.83 354.61 343.694C353.888 342.812 352.777 342.371 351.832 341.735C349.978 340.391 348.634 338.459 348.018 336.254C347.402 334.061 347.037 331.805 346.93 329.53C346.875 329.049 346.875 328.563 346.93 328.081C346.957 327.83 347.023 327.585 347.124 327.354C347.663 326.145 349.106 325.676 350.395 325.366C358.575 323.406 366.959 322.425 375.371 322.445C378.487 320.326 380.234 321.088 381.557 323.327C382.283 324.7 382.872 326.14 383.315 327.629C383.888 329.45 383.956 339.656 384.541 341.471C385.285 343.848 383.08 348.716 383.109 351.214Z" fill="#696791"/>
<path d="M326.844 258.466C326.615 260.07 327.382 261.645 327.468 263.266C327.543 264.68 327.09 266.06 326.838 267.452C325.83 272.882 327.76 278.386 329.702 283.552C330.077 284.389 330.309 285.283 330.389 286.198C330.441 287.881 329.473 289.428 329.204 291.094C328.631 294.594 331.225 297.881 331.283 301.403C331.283 303.036 330.79 304.697 331.202 306.272C331.472 307.325 332.13 308.236 332.594 309.215C333.425 310.934 333.648 312.938 334.438 314.696C335.864 317.875 338.928 319.954 341.849 321.861C343.505 321.289 345.286 320.653 346.214 319.158C346.614 318.423 346.873 317.618 346.975 316.787C347.605 313.162 347.582 309.462 347.548 305.785C347.611 302.62 347.452 299.455 347.073 296.312C346.5 292.303 345.188 288.466 344.255 284.531C343.109 279.577 342.485 274.457 340.658 269.697C339.049 265.522 336.552 261.771 333.917 258.174C332.915 256.805 332.119 254.846 330.171 255.161C329.345 255.304 328.581 255.697 327.986 256.288C327.391 256.88 326.992 257.64 326.844 258.466Z" fill="#434175"/>
<path opacity="0.05" d="M326.844 257.321C326.615 258.924 327.382 260.499 327.468 262.12C327.543 263.535 327.09 264.915 326.838 266.307C325.83 271.736 327.76 277.24 329.702 282.406C330.077 283.244 330.309 284.138 330.389 285.052C330.441 286.736 329.473 288.282 329.204 289.949C328.631 293.448 331.225 296.736 331.283 300.258C331.283 301.89 330.79 303.551 331.202 305.126C331.472 306.18 332.13 307.091 332.594 308.07C333.425 309.788 333.648 311.793 334.438 313.551C335.864 316.73 338.928 318.809 341.849 320.716C343.505 320.143 345.286 319.507 346.214 318.013C346.614 317.277 346.873 316.473 346.975 315.641C347.605 312.016 347.582 308.316 347.548 304.639C347.611 301.474 347.452 298.309 347.073 295.166C346.5 291.157 345.188 287.32 344.255 283.385C343.109 278.431 342.485 273.311 340.658 268.552C339.049 264.377 336.552 260.625 333.917 257.028C332.915 255.66 332.119 253.701 330.171 254.016C329.345 254.158 328.581 254.552 327.986 255.143C327.391 255.734 326.992 256.495 326.844 257.321Z" fill="black"/>
<path opacity="0.1" d="M369.214 223.524C367.925 225.587 366.859 227.781 366.036 230.07C364.855 230.361 363.644 230.507 362.428 230.506C357.703 230.506 354.364 227.819 351.586 224.423C351.345 223.335 349.868 222.321 350.017 221.468C350.24 220.322 351.305 220.557 352.267 220.62C355.198 220.853 358.115 221.235 361.007 221.766C361.763 221.857 369.1 223.713 369.214 223.524Z" fill="black"/>
<path d="M362.427 230.093C370.781 230.093 377.553 223.321 377.553 214.968C377.553 206.614 370.781 199.842 362.427 199.842C354.074 199.842 347.302 206.614 347.302 214.968C347.302 223.321 354.074 230.093 362.427 230.093Z" fill="#EE8E9E"/>
<path opacity="0.1" d="M381.539 323.339C378.922 323.184 376.282 323.293 373.659 323.396C372.015 323.415 370.375 323.584 368.762 323.9C366.775 324.353 364.919 325.258 362.96 325.825C359.822 326.735 356.511 326.775 353.264 327.096C351.129 327.302 349.008 327.635 346.912 328.093C346.94 327.842 347.006 327.596 347.107 327.365C347.645 326.157 349.089 325.687 350.377 325.378C358.558 323.417 366.942 322.437 375.354 322.457C378.47 320.367 380.216 321.1 381.539 323.339Z" fill="black"/>
<path d="M371.23 239.732C370.572 240.494 369.684 241.336 368.71 241.09C368.356 240.968 368.023 240.79 367.725 240.563C366.007 239.417 363.842 239.177 361.792 238.844C357.657 238.222 353.573 237.303 349.57 236.095C348.406 235.674 347.186 235.427 345.95 235.362C343.39 235.362 341.116 237.08 339.513 239.074C337.909 241.067 336.764 243.409 335.189 245.431C334.043 246.874 332.726 248.146 331.678 249.64C329.032 253.415 328.459 258.34 329.146 262.899C329.834 267.458 331.649 271.759 333.459 276.003C334.418 278.481 335.595 280.869 336.976 283.139C336.368 286.576 336.689 290.585 338.339 293.677C338.871 294.691 339.53 295.676 339.707 296.81C339.788 297.574 339.757 298.346 339.616 299.101L338.843 304.576C338.608 306.243 338.373 307.91 338.069 309.571C337.497 312.6 336.764 315.871 338.167 318.631C339.845 321.919 338.081 326.128 338.522 329.794C343.255 327.965 348.214 326.788 353.264 326.294C356.511 325.973 359.822 325.933 362.96 325.023C364.919 324.45 366.775 323.551 368.762 323.093C370.376 322.777 372.015 322.611 373.659 322.594C377.284 322.451 380.932 322.302 384.541 322.835C384.827 322.881 385.182 322.904 385.36 322.669C385.434 322.538 385.471 322.39 385.468 322.239C385.523 320.895 385.202 319.562 384.541 318.391C384.082 317.583 383.447 316.793 383.464 315.865C383.495 315.432 383.601 315.007 383.779 314.611L385.365 310.372C386.711 306.793 386.07 302.635 386.768 298.878C387.313 295.939 387.661 292.968 387.811 289.983C387.943 287.435 387.862 284.674 386.322 282.635C385.877 282.142 385.493 281.598 385.176 281.014C384.953 280.397 384.859 279.74 384.901 279.084C384.867 273.983 385.006 268.882 385.319 263.781C383.979 261.37 382.576 258.907 381.236 256.496C379.672 253.69 378.092 250.826 377.462 247.676C377.044 245.597 377.055 243.449 376.757 241.347C376.725 240.812 376.54 240.297 376.225 239.864C375.933 239.609 375.589 239.42 375.217 239.31C374.846 239.201 374.455 239.173 374.071 239.228C373.104 239.249 372.146 239.419 371.23 239.732Z" fill="#434175"/>
<path opacity="0.1" d="M426.607 230.643C425.658 231.378 424.525 231.84 423.331 231.977C421.774 232.08 418.458 231.164 417.49 229.83C417.076 229.159 416.876 228.378 416.917 227.59C417.129 227.523 417.348 227.48 417.57 227.464C419.262 227.28 420.972 227.35 422.644 227.67C424.294 228.071 425.886 229.074 426.579 230.626L426.607 230.643Z" fill="black"/>
<path d="M376.282 263.357C377.204 264.503 378.16 265.682 379.466 266.364C380.972 267.143 382.742 267.16 384.432 267.126C391.402 266.971 398.345 266.204 405.182 264.835C405.962 264.7 406.729 264.495 407.473 264.222C408.289 263.83 409.058 263.346 409.763 262.779C412.014 261.164 414.299 259.514 416.012 257.332C418.045 254.698 419.324 251.56 419.712 248.254C421.338 246.76 422.203 244.623 423.016 242.567C423.419 241.695 423.674 240.762 423.772 239.807C423.812 238.827 423.165 237.802 423.349 236.84C423.66 235.179 424.502 233.663 425.748 232.522C426.014 232.333 426.214 232.067 426.321 231.76C426.357 231.506 426.311 231.247 426.189 231.021C425.491 229.469 423.898 228.472 422.249 228.066C420.576 227.742 418.863 227.673 417.169 227.86C416.605 227.967 416.05 228.116 415.508 228.306L414.322 231.416C414.166 231.938 413.902 232.422 413.549 232.837C413.287 233.076 413.008 233.297 412.713 233.495C412.112 234.004 411.646 234.654 411.355 235.386C411.064 236.118 410.958 236.91 411.046 237.693C409.978 238.108 409.107 238.915 408.611 239.949C408.115 240.983 408.032 242.167 408.377 243.26C407.488 243.452 406.662 243.869 405.98 244.47C405.297 245.072 404.78 245.838 404.477 246.697C404.394 247.089 404.219 247.456 403.967 247.768C403.584 248.063 403.111 248.217 402.627 248.203C401.287 248.283 400.119 249.348 398.91 248.776C397.533 248.133 395.995 247.918 394.495 248.157C394.185 248.231 393.867 248.26 393.55 248.243C393.279 248.196 393.018 248.105 392.776 247.974C392.231 247.656 391.64 247.424 391.024 247.286C390.715 247.22 390.393 247.246 390.098 247.36C389.803 247.474 389.547 247.671 389.363 247.928C388.939 247.464 388.687 246.868 388.303 246.37C388.131 246.105 387.889 245.893 387.605 245.756C387.32 245.62 387.003 245.565 386.688 245.597C387.089 245.242 386.688 244.526 386.156 244.394C385.619 244.353 385.079 244.373 384.546 244.451C383.149 244.451 382.072 243.174 380.715 242.842C379.466 242.539 377.8 242.905 377.158 241.788C376.935 241.393 376.889 240.855 376.505 240.643C376.243 240.513 375.943 240.478 375.658 240.545C374.771 240.662 373.91 240.923 373.109 241.319C371.797 246.473 372.485 251.765 373.481 256.954C373.849 259.294 374.814 261.499 376.282 263.357Z" fill="#434175"/>
<path opacity="0.1" d="M376.242 281.713L369.73 294.851C370.434 293.632 371.918 293.133 373.092 292.383C374.574 291.306 375.688 289.798 376.282 288.065C376.871 286.337 377.284 284.555 377.513 282.744C377.645 281.913 377.92 280.745 377.513 279.989C376.792 280.144 376.551 281.1 376.242 281.713Z" fill="black"/>
<path opacity="0.1" d="M357.502 292.876C356.03 294.33 354.232 295.401 352.617 296.69C348.837 299.702 346.145 303.826 343.516 307.875C342.773 308.934 342.149 310.071 341.655 311.266C341.964 311.529 342.422 311.266 342.731 310.985L347.846 306.495C348.477 305.984 349.053 305.408 349.564 304.777C350.452 303.58 350.847 302.091 351.654 300.836C352.532 299.636 353.58 298.569 354.764 297.669C355.938 296.661 361.334 292.097 360.022 290.321C359.054 290.779 358.275 292.097 357.502 292.876Z" fill="black"/>
<path d="M368.676 235.935C366.999 235.008 365.163 234.404 363.264 234.154C362.137 233.899 360.979 233.816 359.827 233.907C358.762 234.039 357.737 234.452 356.666 234.48C355.16 234.566 353.722 233.953 352.267 233.558C350.813 233.163 349.135 232.985 347.915 233.885C347.653 234.141 347.323 234.317 346.964 234.389C346.594 234.339 346.25 234.17 345.985 233.907C344.956 233.171 343.707 232.806 342.444 232.873C341.181 232.939 339.977 233.434 339.032 234.274C336.26 236.874 336.575 241.954 333.304 243.93C332.411 244.503 331.265 244.761 330.739 245.648C330.611 245.937 330.464 246.216 330.298 246.485C330.082 246.729 329.816 246.924 329.519 247.057C328.575 247.478 327.677 247.994 326.838 248.598C326.42 248.902 326.068 249.287 325.803 249.731C325.538 250.175 325.366 250.668 325.298 251.181C325.285 251.931 325.446 252.674 325.767 253.352C327.358 257.252 330.118 260.565 333.667 262.834C337.216 265.104 341.381 266.219 345.589 266.026C346.338 266.068 347.076 265.839 347.668 265.379C347.98 265.026 348.226 264.621 348.396 264.182C349.925 260.98 352.794 258.615 354.616 255.591C355.698 253.775 356.397 251.742 357.531 249.955C359.249 247.246 361.849 245.242 364.403 243.3C365.847 242.206 367.445 241.055 369.254 241.13C370.864 241.198 372.038 241.284 371.442 239.314C370.953 237.894 369.971 236.695 368.676 235.935Z" fill="#434175"/>
<path opacity="0.05" d="M368.676 235.935C366.999 235.008 365.163 234.404 363.264 234.154C362.137 233.899 360.979 233.816 359.827 233.907C358.762 234.039 357.737 234.452 356.666 234.48C355.16 234.566 353.722 233.953 352.267 233.558C350.813 233.163 349.135 232.985 347.915 233.885C347.653 234.141 347.323 234.317 346.964 234.389C346.594 234.339 346.25 234.17 345.985 233.907C344.956 233.171 343.707 232.806 342.444 232.873C341.181 232.939 339.977 233.434 339.032 234.274C336.26 236.874 336.575 241.954 333.304 243.93C332.411 244.503 331.265 244.761 330.739 245.648C330.611 245.937 330.464 246.216 330.298 246.485C330.082 246.729 329.816 246.924 329.519 247.057C328.575 247.478 327.677 247.994 326.838 248.598C326.42 248.902 326.068 249.287 325.803 249.731C325.538 250.175 325.366 250.668 325.298 251.181C325.285 251.931 325.446 252.674 325.767 253.352C327.358 257.252 330.118 260.565 333.667 262.834C337.216 265.104 341.381 266.219 345.589 266.026C346.338 266.068 347.076 265.839 347.668 265.379C347.98 265.026 348.226 264.621 348.396 264.182C349.925 260.98 352.794 258.615 354.616 255.591C355.698 253.775 356.397 251.742 357.531 249.955C359.249 247.246 361.849 245.242 364.403 243.3C365.847 242.206 367.445 241.055 369.254 241.13C370.864 241.198 372.038 241.284 371.442 239.314C370.953 237.894 369.971 236.695 368.676 235.935Z" fill="black"/>
<path d="M376.551 455.164C375.451 456.189 373.945 456.635 372.485 456.95C369.145 457.603 365.763 458.023 362.365 458.205L359.06 458.457C355.836 458.703 352.605 458.949 349.369 458.961C345.372 458.973 341.381 458.628 337.445 457.93C337.265 457.923 337.087 457.879 336.925 457.8C336.762 457.721 336.617 457.609 336.5 457.472C336.377 457.242 336.327 456.98 336.357 456.721C336.426 452.691 336.918 448.679 337.823 444.751C338.195 443.142 341.088 446.756 341.22 446.911C341.518 447.332 341.912 447.678 342.368 447.92C342.825 448.161 343.332 448.292 343.848 448.302C347.176 448.486 350.904 446.464 353.545 444.665C354.112 444.244 354.713 443.87 355.343 443.549C355.805 443.342 356.295 443.203 356.798 443.136C358.51 442.977 360.231 443.326 361.746 444.139C363.733 445.124 365.475 446.538 367.473 447.575C369.074 448.395 370.801 448.941 372.582 449.19C374.38 449.436 376.534 449.557 377.456 451.114C378.189 452.403 377.639 454.144 376.551 455.164Z" fill="#434175"/>
<path d="M376.551 455.759C375.451 456.784 373.945 457.231 372.485 457.546C369.145 458.199 365.763 458.618 362.365 458.8L359.06 459.052C355.835 459.299 352.605 459.545 349.369 459.556C345.372 459.571 341.381 459.226 337.445 458.525C337.265 458.52 337.088 458.476 336.925 458.399C336.762 458.321 336.618 458.21 336.5 458.073C336.189 457.661 335.941 457.205 335.761 456.721C335.83 452.712 336.907 448.674 337.823 444.751C338.195 443.142 341.088 446.756 341.219 446.911C341.518 447.332 341.911 447.678 342.368 447.919C342.825 448.161 343.332 448.292 343.848 448.302C347.176 448.486 350.904 446.464 353.545 444.665C354.112 444.244 354.713 443.87 355.343 443.549C355.805 443.342 356.295 443.203 356.798 443.136C356.368 445.53 352.937 448.423 351.162 449.305C347.577 451.086 343.316 450.192 339.318 450.404C339.025 450.398 338.735 450.467 338.476 450.605C338.001 450.925 337.972 451.607 337.984 452.18C338.018 453.13 338.138 454.253 338.969 454.734C339.382 454.934 339.838 455.03 340.297 455.015C350.154 455.445 360.03 455.099 369.833 453.978C371.482 453.869 373.104 453.508 374.644 452.907C375.651 452.436 376.589 451.832 377.433 451.109C378.693 452.094 377.639 454.74 376.551 455.759Z" fill="#E8EAF2"/>
<path d="M368.315 214.807C368.258 216.371 369.323 219.389 366.396 218.558C364.678 218.054 364.163 215.987 361.952 216.445C359.741 216.903 359.226 219.635 358.481 221.416C357.873 222.832 356.93 224.078 355.732 225.048C354.535 226.018 353.12 226.682 351.609 226.983C350.985 227.129 350.336 227.129 349.713 226.983C348.287 226.577 347.474 225.105 346.889 223.742C346.385 222.587 345.968 221.396 345.641 220.179C345.411 219.324 345.259 218.45 345.188 217.568C345.14 216.967 345.14 216.364 345.188 215.763C345.452 212.207 347.479 208.965 350.068 206.514C352.657 204.063 355.795 202.287 358.917 200.54C359.933 199.909 361.032 199.419 362.181 199.086C363.312 198.86 364.472 198.814 365.618 198.948C367.132 199.01 368.621 199.36 370.005 199.979C370.571 200.258 371.091 200.624 371.545 201.062C372.195 201.661 372.66 202.434 372.885 203.289C373.458 205.58 371.981 207.659 370.789 209.475C369.701 211.084 368.39 212.791 368.315 214.807Z" fill="#434175"/>
<path opacity="0.1" d="M417.518 248.375C416.894 246.8 414.271 242.441 415.027 240.929C415.818 242.046 416.488 243.244 417.026 244.503C417.518 245.734 417.129 247.372 417.518 248.375Z" fill="black"/>
<path opacity="0.1" d="M370.824 209.469C372.015 207.654 373.481 205.581 372.92 203.284C372.642 202.27 372.038 201.377 371.202 200.741C371.396 201.076 371.543 201.436 371.637 201.812C372.21 204.103 370.732 206.176 369.541 207.997C368.481 209.613 367.17 211.325 367.09 213.335C367.032 214.899 368.103 217.917 365.177 217.087C363.459 216.583 362.943 214.515 360.727 214.973C358.51 215.431 358.006 218.158 357.256 219.945C356.648 221.361 355.705 222.608 354.508 223.578C353.31 224.547 351.895 225.211 350.383 225.511C349.76 225.657 349.111 225.657 348.487 225.511C348.166 225.417 347.864 225.268 347.594 225.07C348.04 225.962 348.814 226.648 349.753 226.983C350.379 227.127 351.029 227.127 351.655 226.983C353.166 226.68 354.58 226.014 355.777 225.044C356.974 224.073 357.918 222.826 358.527 221.411C359.278 219.624 359.764 216.909 361.998 216.445C364.232 215.981 364.701 218.049 366.448 218.553C369.375 219.4 368.304 216.365 368.361 214.801C368.453 212.797 369.77 211.084 370.824 209.469Z" fill="black"/>
<path opacity="0.1" d="M371.471 206.359C371.2 206.805 370.902 207.234 370.577 207.642C369.96 208.422 369.267 209.139 368.51 209.784C368.057 210.174 367.594 210.534 367.112 210.878C366.215 211.511 365.271 212.076 364.289 212.568C361.382 213.921 358.357 215.004 355.251 215.804L349.215 217.562C348.47 218.135 347.113 219.131 345.618 220.179C345.388 219.324 345.236 218.45 345.166 217.568C345.117 216.967 345.117 216.364 345.166 215.763C345.429 212.207 347.456 208.965 350.045 206.514C352.634 204.063 355.772 202.287 358.894 200.54C359.911 199.909 361.009 199.419 362.158 199.086C363.29 198.86 364.449 198.814 365.595 198.948C367.109 199.01 368.598 199.36 369.982 199.979C370.548 200.258 371.068 200.624 371.522 201.062C371.864 201.564 372.125 202.116 372.296 202.7C372.674 203.931 372.147 205.248 371.471 206.359Z" fill="black"/>
<path d="M371.471 205.953C371.2 206.399 370.902 206.827 370.577 207.236C369.96 208.015 369.267 208.733 368.51 209.378C368.057 209.767 367.593 210.128 367.112 210.472C366.213 211.102 365.27 211.667 364.289 212.161C361.382 213.514 358.356 214.597 355.251 215.397L349.215 217.15C347.107 218.747 340.051 223.971 338.865 223.318C337.468 222.55 345.125 217.127 345.125 217.127L345.475 217.396C344.329 216.691 343.757 215.059 343.516 213.644C343.069 211.113 342.857 208.49 343.459 205.987C344.06 203.484 345.561 201.113 347.846 199.945C348.86 199.418 350.091 199.069 350.824 198.267C350.934 198.145 351.032 198.012 351.116 197.872C351.161 197.807 351.199 197.738 351.231 197.665C351.307 197.443 351.415 197.233 351.551 197.041C351.969 196.56 352.731 196.703 353.367 196.783H353.573C353.686 196.789 353.798 196.789 353.911 196.783C356.202 196.835 358.384 195.569 360.681 195.569C363.195 195.569 365.337 197.024 367.553 198.02C368 198.221 368.424 198.404 368.825 198.593C370.428 199.338 371.631 200.134 372.261 202.247C372.674 203.53 372.147 204.853 371.471 205.953Z" fill="#790E8B"/>
<path opacity="0.1" d="M353.911 196.818C354.037 197.031 354.083 197.283 354.039 197.527C353.994 197.771 353.864 197.991 353.67 198.146C353.391 198.346 353.062 198.463 352.72 198.484C352.473 198.518 352.224 198.537 351.975 198.542C351.64 198.567 351.304 198.51 350.996 198.375C350.936 198.344 350.878 198.308 350.824 198.267C350.934 198.145 351.032 198.012 351.116 197.871C351.173 197.917 351.231 197.906 351.454 197.871C351.869 197.852 352.281 197.783 352.68 197.665C352.845 197.62 353.001 197.545 353.138 197.442C353.342 197.268 353.493 197.04 353.573 196.783L353.911 196.818Z" fill="black"/>
<path opacity="0.1" d="M345.274 217.069C345.594 217.269 345.95 217.401 346.323 217.459C346.587 217.526 346.858 217.57 347.13 217.591C347.824 217.555 348.501 217.359 349.106 217.018" fill="black"/>
</g>
<defs>
<linearGradient id="paint0_linear" x1="378.04" y1="458.961" x2="378.04" y2="194.223" gradientUnits="userSpaceOnUse">
<stop stop-color="#808080" stop-opacity="0.25"/>
<stop offset="0.54" stop-color="#808080" stop-opacity="0.12"/>
<stop offset="1" stop-color="#808080" stop-opacity="0.1"/>
</linearGradient>
<clipPath id="clip0">
<rect width="630" height="462.042" fill="white"/>
</clipPath>
</defs>
</svg>
