<svg width="100%" height="100%" viewBox="0 0 588 537" fill="none" xmlns="http://www.w3.org/2000/svg">
<g clip-path="url(#clip0)">
<path d="M536.793 205.161H80.6816V459.568H536.793V205.161Z" fill="#3F3D56"/>
<path d="M97.1554 226.837L127.185 215.55C118.494 205.004 106.941 194.231 94.7486 184.152L53.3195 191.166L87.5216 178.311C57.3597 154.458 26.0307 135.823 26.0307 135.823C26.0307 135.823 -8.21373 231.715 1.85208 274.312C7.69044 299.019 23.4234 318.521 43.1456 328.765L43.9481 273.722L54.6609 333.537C66.1055 337.189 78.327 337.665 90.0209 334.913C128.649 325.785 151.804 283.854 141.738 241.257C140.23 234.876 136.571 228.04 131.45 221.03L97.1554 226.837Z" fill="#D0CDE1"/>
<path opacity="0.1" d="M101.847 321.983C111.853 316.206 118.367 308.755 116.396 305.341C114.425 301.927 104.716 303.843 94.7094 309.62C84.7031 315.397 78.1892 322.848 80.1602 326.262C82.1312 329.676 91.8408 327.76 101.847 321.983Z" fill="black"/>
<path d="M217.847 459.568H176.816C170.933 454.046 165.443 448.119 160.387 441.831L131.784 393.63L95.9461 333.217L91.9575 326.502L88.6782 320.971L106.402 311.127L110.169 316.15L110.905 317.126L115.225 322.878L144.322 361.637L147.504 332.54H159.32L149.619 368.691L217.847 459.568Z" fill="#F2F2F2"/>
<path d="M476.473 229.375L442.492 225.984C448.546 212.756 457.482 198.511 467.265 184.806L511.804 180.682L473.101 176.82C497.6 144.026 524.727 116.28 524.727 116.28C524.727 116.28 586.202 205.551 587.507 252.127C588.264 279.141 577.417 303.51 559.933 319.446L544.041 263.042L549.393 327.506C538.62 334.396 526.178 338.23 513.395 338.601C471.159 339.784 435.862 302.987 434.557 256.412C434.362 249.435 436.256 241.401 439.605 232.789L476.473 229.375Z" fill="#D0CDE1"/>
<path opacity="0.1" d="M521.171 327.002C522.264 322.951 513.524 317.069 501.649 313.865C489.774 310.661 479.261 311.348 478.168 315.399C477.075 319.451 485.815 325.333 497.69 328.537C509.565 331.741 520.078 331.054 521.171 327.002Z" fill="black"/>
<path d="M510.962 323.886L510.76 324.609L509.101 330.484L506.837 338.481V338.487L486.504 410.43L472.788 458.95C472.553 459.158 472.319 459.36 472.078 459.568H433.091L461.33 389.661L441.458 355.131L453.613 351.897L464.85 380.949L484.174 333.126L484.181 333.119L487.044 326.02L487.532 324.81L490.03 318.609L510.311 323.73L510.962 323.886Z" fill="#F2F2F2"/>
<path d="M251.818 476.031L235.574 536.086H291.199L297.598 530.179L300.059 536.086H359.622C359.622 536.086 366.022 497.198 358.146 494.244C350.27 491.291 251.818 476.031 251.818 476.031Z" fill="#2F2E41"/>
<path d="M314.335 239.256C333.094 239.256 348.3 224.049 348.3 205.29C348.3 186.532 333.094 171.325 314.335 171.325C295.576 171.325 280.369 186.532 280.369 205.29C280.369 224.049 295.576 239.256 314.335 239.256Z" fill="#A0616A"/>
<path d="M288.984 222.273C288.984 222.273 295.383 270.514 285.538 275.929C275.693 281.344 344.116 281.836 344.116 281.836C344.116 281.836 328.856 239.994 335.748 227.196L288.984 222.273Z" fill="#A0616A"/>
<path d="M311.874 267.807C311.874 267.807 294.64 265.233 290.951 256.675L239.02 279.621C239.02 279.621 248.373 348.045 253.787 360.351L246.896 483.907C246.896 483.907 295.137 515.904 360.115 498.675L376.359 362.812L394.08 282.082L337.343 259.295C337.343 259.295 326.149 266.822 311.874 267.807Z" fill="#790E8B"/>
<path d="M347.808 423.36C347.808 423.36 285.292 421.391 289.722 440.096C294.152 458.802 351.746 439.112 351.746 439.112L347.808 423.36Z" fill="#A0616A"/>
<path d="M286.079 173.162L279.728 170.619C279.728 170.619 293.007 156 311.482 157.272L306.285 151.551C306.285 151.551 318.987 146.466 330.534 159.814C336.604 166.831 343.627 175.078 348.005 184.369H354.806L351.967 190.62L361.902 196.87L351.705 195.747C352.313 199.17 352.406 202.664 351.982 206.114C351.544 209.566 349.783 212.712 347.07 214.889C347.07 214.889 339.194 198.587 339.194 196.044V202.4C339.194 202.4 332.843 196.68 332.843 192.866L329.379 197.315L327.647 190.324L306.285 197.315L309.749 191.595L296.471 193.502L301.667 186.51C301.667 186.51 286.656 194.773 286.079 201.765C285.501 208.756 281.108 215.382 281.108 215.382C281.108 215.382 269.336 182.696 286.079 173.162Z" fill="#2F2E41"/>
<path d="M327.38 403.394V411.773C327.379 411.85 327.349 411.924 327.294 411.979C327.239 412.034 327.165 412.065 327.088 412.065H326.88V455.713C326.88 456.92 326.4 458.079 325.546 458.933C324.692 459.787 323.533 460.267 322.325 460.267H295.053C293.845 460.267 292.687 459.787 291.833 458.933C290.979 458.079 290.499 456.921 290.5 455.713V413.596H290.349C290.294 413.596 290.242 413.574 290.203 413.536C290.165 413.497 290.143 413.445 290.142 413.39V408.622C290.142 408.567 290.164 408.515 290.203 408.476C290.242 408.437 290.294 408.415 290.349 408.415H290.5V406.619H290.348C290.29 406.619 290.236 406.596 290.195 406.555C290.155 406.515 290.132 406.46 290.132 406.402V401.699C290.132 401.642 290.155 401.587 290.195 401.546C290.236 401.506 290.291 401.483 290.348 401.483H290.5V399.031H290.345C290.32 399.031 290.295 399.026 290.272 399.017C290.249 399.007 290.228 398.993 290.21 398.975C290.192 398.958 290.178 398.937 290.168 398.914C290.159 398.89 290.154 398.866 290.154 398.84V396.273C290.154 396.222 290.174 396.173 290.21 396.137C290.246 396.101 290.294 396.081 290.345 396.081H290.5V390.884C290.5 389.676 290.979 388.518 291.833 387.664C292.687 386.81 293.845 386.331 295.053 386.331H322.325C323.533 386.331 324.691 386.81 325.545 387.664C326.399 388.518 326.879 389.676 326.88 390.884V403.102H327.088C327.165 403.102 327.239 403.133 327.294 403.188C327.349 403.243 327.379 403.317 327.38 403.394Z" fill="#3F3D56"/>
<path d="M308.735 410.239C311.201 410.239 313.2 408.24 313.2 405.774C313.2 403.308 311.201 401.309 308.735 401.309C306.269 401.309 304.27 403.308 304.27 405.774C304.27 408.24 306.269 410.239 308.735 410.239Z" fill="#F2F2F2"/>
<path d="M378.82 282.082H394.08C394.08 282.082 442.814 388.409 430.999 401.208C419.185 414.007 347.808 448.957 347.808 448.957C347.808 448.957 342.393 421.883 337.471 421.883L386.696 391.363L362.576 333.769L378.82 282.082Z" fill="#790E8B"/>
<path d="M269.54 418.929C269.54 418.929 325.165 448.465 314.827 461.263C304.49 474.062 254.772 438.62 254.772 438.62L269.54 418.929Z" fill="#A0616A"/>
<path d="M245.911 280.113H239.02C239.02 280.113 229.175 289.466 226.221 310.633L197.623 374.359C196.758 376.286 196.328 378.38 196.363 380.491C196.398 382.603 196.896 384.681 197.824 386.579C204.17 399.577 220.875 428.91 245.911 437.635L258.71 447.48C258.71 447.48 257.233 423.36 277.416 423.36L242.958 385.948L256.249 342.63L245.911 280.113Z" fill="#790E8B"/>
<path d="M478.573 0H309.063V130.765H478.573V0Z" fill="#3F3D56"/>
<path d="M362.068 47.0862H338.391V109.509H362.068V47.0862Z" fill="#D0CDE1"/>
<path d="M405.656 71.3019H381.979V109.509H405.656V71.3019Z" fill="#D0CDE1"/>
<path d="M449.245 21.2561H425.567V109.509H449.245V21.2561Z" fill="#D0CDE1"/>
<path d="M393.818 58.9249C400.356 58.9249 405.656 53.6245 405.656 47.0861C405.656 40.5477 400.356 35.2473 393.818 35.2473C387.279 35.2473 381.979 40.5477 381.979 47.0861C381.979 53.6245 387.279 58.9249 393.818 58.9249Z" fill="#790E8B"/>
<path d="M268.071 25.1492H98.561V155.914H268.071V25.1492Z" fill="#3F3D56"/>
<path d="M124.391 129.008C124.391 129.008 126.005 85.4194 158.293 92.415C190.581 99.4107 238.474 59.0511 238.474 59.0511" fill="#790E8B"/>
<path d="M124.66 126.856V43.4458H113.898V126.856V137.079V137.618H252.734V126.856H124.66Z" fill="#D0CDE1"/>
<path d="M285.215 342.657L291.106 349.53C293.295 349.113 295.581 348.623 297.935 348.072L296.243 342.657L300.38 347.484C325.321 341.35 356.235 329.423 356.235 329.423C356.235 329.423 322.86 331.871 297.941 326.426C286.915 324.018 275.571 329.483 271.047 339.822C268.417 345.832 268.83 351.038 278.157 351.038C281.309 350.985 284.451 350.689 287.558 350.154L285.215 342.657Z" fill="#2F2E41"/>
</g>
<defs>
<clipPath id="clip0">
<rect width="587.544" height="536.086" fill="white"/>
</clipPath>
</defs>
</svg>
