<svg width="100%" height="100%" viewBox="0 0 611 470" fill="none" xmlns="http://www.w3.org/2000/svg">
<g clip-path="url(#clip0)">
<path opacity="0.1" d="M572.16 266.06C549.66 299.905 555.355 346.947 566.684 384.209C570.498 396.682 574.808 409.863 572.247 423.65C569.114 440.509 556.341 453.495 543.247 460.764C519.385 474.021 491.687 472.932 471.138 457.936C453.379 444.972 441.31 422.854 423.186 410.528C392.894 389.974 352.445 400.97 317.516 418.636C292.804 431.12 265.673 447.043 242.252 437.054C225.774 430.025 215.094 411.095 209.786 390.655C207.225 380.787 205.547 370.035 200.087 362.423C196.817 357.9 192.458 354.794 187.941 352.271C146.685 328.981 92.2535 346.195 52.3385 320.007C25.4034 302.351 9.37742 266.856 3.39426 229.175C-2.58891 191.494 0.35908 151.415 4.35875 111.975C7.19776 83.9496 11.2683 53.9684 26.9019 31.5015C43.44 7.73779 70.2662 -2.38128 93.9264 0.46862C117.587 3.31852 138.391 17.4318 156.499 34.4713C179.129 55.723 199.749 82.6745 228.482 90.0526C248.05 95.0931 269.138 90.3632 289.703 87.873C324.088 83.7589 358.161 86.0475 392.006 88.7666C424.412 91.3713 457.025 94.4283 487.458 105.534C508.993 113.391 525.788 129.041 545.977 139.449C559.137 146.233 573.795 147.421 586.126 156.342C601.318 167.322 614.745 187.233 609.465 211.836C604.446 235.262 584.099 248.078 572.16 266.06Z" fill="#790E8B"/>
<path opacity="0.1" d="M502.243 139.727H479.961V173.457H502.243V139.727Z" fill="#790E8B"/>
<path opacity="0.1" d="M500.074 143.007H482.124V170.177H500.074V143.007Z" fill="#790E8B"/>
<path opacity="0.1" d="M468.954 116.296H434.733V150.026H468.954V116.296Z" fill="#790E8B"/>
<path opacity="0.1" d="M465.624 119.576H438.057V146.746H465.624V119.576Z" fill="#790E8B"/>
<path opacity="0.1" d="M139.809 66.1091H35.2124V68.8936H139.809V66.1091Z" fill="#790E8B"/>
<path opacity="0.1" d="M139.809 79.7265H35.2124V82.511H139.809V79.7265Z" fill="#790E8B"/>
<path d="M222.347 246.645H211.661V366.058H222.347V246.645Z" fill="#D6D6E3"/>
<path d="M534.474 259.183V149.034C534.476 145.964 535.696 143.02 537.868 140.85C540.039 138.679 542.984 137.46 546.054 137.46C549.12 137.466 552.059 138.688 554.226 140.858C556.392 143.027 557.61 145.968 557.611 149.034V282.342C557.611 285.413 556.391 288.359 554.22 290.53C552.048 292.702 549.103 293.922 546.032 293.922H474.316C471.245 293.922 468.299 292.702 466.128 290.53C463.956 288.359 462.736 285.413 462.736 282.342C462.736 279.271 463.956 276.326 466.128 274.154C468.299 271.983 471.245 270.763 474.316 270.763H522.895C525.966 270.763 528.911 269.543 531.083 267.371C533.254 265.2 534.474 262.254 534.474 259.183Z" fill="#AEBEE1"/>
<path d="M534.474 259.183V149.034C534.476 145.964 535.696 143.02 537.868 140.85C540.039 138.679 542.984 137.46 546.054 137.46C549.12 137.466 552.059 138.688 554.226 140.858C556.392 143.027 557.61 145.968 557.611 149.034V282.342C557.611 285.413 556.391 288.359 554.22 290.53C552.048 292.702 549.103 293.922 546.032 293.922H474.316C471.245 293.922 468.299 292.702 466.128 290.53C463.956 288.359 462.736 285.413 462.736 282.342C462.736 279.271 463.956 276.326 466.128 274.154C468.299 271.983 471.245 270.763 474.316 270.763H522.895C525.966 270.763 528.911 269.543 531.083 267.371C533.254 265.2 534.474 262.254 534.474 259.183Z" fill="#535461"/>
<path d="M462.753 281.721C462.912 278.762 464.199 275.976 466.35 273.937C468.501 271.899 471.352 270.763 474.316 270.763H522.895C525.966 270.763 528.911 269.543 531.083 267.371C533.254 265.2 534.474 262.254 534.474 259.183V149.034C534.472 146.058 535.616 143.195 537.669 141.04C539.722 138.885 542.525 137.603 545.498 137.46V281.721H462.753Z" fill="#D6D6E3"/>
<path d="M104.896 262.9V152.751C104.896 149.684 103.68 146.743 101.514 144.572C99.3486 142.401 96.4103 141.178 93.3439 141.171C90.2729 141.171 87.3276 142.391 85.156 144.563C82.9845 146.734 81.7645 149.679 81.7645 152.751V286.059C81.7609 287.581 82.0578 289.09 82.6381 290.498C83.2184 291.906 84.0708 293.186 85.1464 294.264C86.222 295.342 87.4997 296.198 88.9064 296.781C90.313 297.365 91.821 297.665 93.3439 297.665H165.055C168.126 297.665 171.071 296.445 173.243 294.274C175.414 292.102 176.634 289.157 176.634 286.086C176.634 283.015 175.414 280.069 173.243 277.898C171.071 275.726 168.126 274.506 165.055 274.506H116.481C114.958 274.507 113.449 274.207 112.042 273.624C110.634 273.041 109.356 272.185 108.28 271.107C107.204 270.029 106.351 268.749 105.77 267.34C105.19 265.932 104.893 264.423 104.896 262.9Z" fill="#AEBEE1"/>
<path d="M104.896 262.9V152.751C104.896 149.684 103.68 146.743 101.514 144.572C99.3486 142.401 96.4103 141.178 93.3439 141.171C90.2729 141.171 87.3276 142.391 85.156 144.563C82.9845 146.734 81.7645 149.679 81.7645 152.751V286.059C81.7609 287.581 82.0578 289.09 82.6381 290.498C83.2184 291.906 84.0708 293.186 85.1464 294.264C86.222 295.342 87.4997 296.198 88.9064 296.781C90.313 297.365 91.821 297.665 93.3439 297.665H165.055C168.126 297.665 171.071 296.445 173.243 294.274C175.414 292.102 176.634 289.157 176.634 286.086C176.634 283.015 175.414 280.069 173.243 277.898C171.071 275.726 168.126 274.506 165.055 274.506H116.481C114.958 274.507 113.449 274.207 112.042 273.624C110.634 273.041 109.356 272.185 108.28 271.107C107.204 270.029 106.351 268.749 105.77 267.34C105.19 265.932 104.893 264.423 104.896 262.9Z" fill="#535461"/>
<path d="M176.618 285.437C176.459 282.478 175.171 279.692 173.02 277.654C170.869 275.615 168.018 274.479 165.055 274.479H116.481C114.96 274.48 113.454 274.181 112.048 273.599C110.643 273.018 109.365 272.165 108.29 271.089C107.214 270.014 106.36 268.737 105.778 267.332C105.196 265.927 104.896 264.421 104.896 262.9V152.751C104.896 149.779 103.753 146.921 101.704 144.769C99.6548 142.617 96.8568 141.334 93.8888 141.187V285.437H176.618Z" fill="#D6D6E3"/>
<path d="M433.758 246.645H423.072V368.842H433.758V246.645Z" fill="#D6D6E3"/>
<path opacity="0.1" d="M222.347 246.645H211.661V255.472H222.347V246.645Z" fill="black"/>
<path opacity="0.1" d="M433.758 246.645H423.072V255.472H433.758V246.645Z" fill="black"/>
<path opacity="0.1" d="M249.827 173.926C249.656 175.808 249.44 177.715 249.179 179.648H247.669V173.926H249.827Z" fill="black"/>
<path d="M293.611 233.365C293.644 235.3 292.249 236.885 290.521 236.885H257.908V233.485H285.045C286.217 233.485 286.947 232.068 286.358 230.935L261.75 180.885C261.576 180.524 261.306 180.218 260.969 180.001C260.633 179.784 260.243 179.663 259.843 179.653H247.669V173.931H263.041C263.321 173.938 263.594 174.023 263.83 174.174C264.065 174.326 264.254 174.54 264.376 174.792L292.587 229.284C293.237 230.548 293.587 231.944 293.611 233.365Z" fill="#535461"/>
<path d="M233.714 224.287L233.267 225.039L229.088 222.249L242.018 122.818H245.348C245.348 122.818 245.484 123.276 245.708 124.148C247.936 132.741 258.884 181.408 233.714 224.287Z" fill="#535461"/>
<path opacity="0.1" d="M245.702 124.148L233.714 224.287L233.267 225.039L229.088 222.249L242.018 122.818H245.348C245.348 122.818 245.479 123.292 245.702 124.148Z" fill="black"/>
<path d="M237.573 121.79L225.306 224.204L233.151 225.144L245.418 122.729L237.573 121.79Z" fill="#D6D6E3"/>
<path d="M198.42 233.403C198.418 233.65 198.32 233.886 198.145 234.061C197.971 234.235 197.735 234.334 197.488 234.335H196.093C195.846 234.335 195.609 234.237 195.434 234.062C195.259 233.888 195.161 233.651 195.161 233.403C195.157 233.367 195.157 233.331 195.161 233.294C195.189 233.069 195.298 232.862 195.467 232.712C195.637 232.562 195.856 232.478 196.082 232.477H197.477C197.684 232.479 197.885 232.55 198.047 232.678C198.21 232.806 198.326 232.985 198.376 233.185C198.4 233.256 198.415 233.329 198.42 233.403Z" fill="#E3EDF9"/>
<path d="M202.599 233.403C202.598 233.65 202.499 233.886 202.325 234.061C202.15 234.235 201.914 234.334 201.668 234.335H200.273C200.025 234.335 199.788 234.237 199.614 234.062C199.439 233.888 199.341 233.651 199.341 233.403C199.341 233.317 199.354 233.23 199.379 233.147C199.42 232.996 199.501 232.859 199.613 232.749C199.698 232.663 199.8 232.594 199.913 232.547C200.025 232.5 200.145 232.476 200.267 232.477H201.662C201.842 232.476 202.018 232.527 202.17 232.624C202.322 232.72 202.442 232.859 202.518 233.022C202.571 233.142 202.599 233.272 202.599 233.403Z" fill="#E3EDF9"/>
<path d="M206.316 233.403C206.314 233.65 206.216 233.886 206.041 234.061C205.867 234.235 205.631 234.334 205.384 234.335H203.989C203.742 234.335 203.505 234.237 203.33 234.062C203.155 233.888 203.057 233.651 203.057 233.403C203.055 233.27 203.083 233.138 203.139 233.016C203.214 232.856 203.334 232.719 203.483 232.623C203.632 232.527 203.806 232.474 203.983 232.472H205.378C205.501 232.471 205.622 232.494 205.736 232.541C205.849 232.588 205.952 232.656 206.039 232.743C206.126 232.83 206.194 232.933 206.241 233.046C206.287 233.159 206.311 233.281 206.31 233.403H206.316Z" fill="#E3EDF9"/>
<path d="M210.501 233.403C210.499 233.65 210.401 233.886 210.226 234.061C210.052 234.235 209.815 234.334 209.569 234.335H208.174C208.003 234.335 207.836 234.288 207.691 234.2C207.545 234.111 207.427 233.985 207.348 233.834C207.269 233.682 207.234 233.513 207.245 233.343C207.256 233.173 207.313 233.009 207.411 232.869L207.52 232.749C207.605 232.663 207.707 232.594 207.819 232.547C207.932 232.5 208.052 232.476 208.174 232.477H209.569C209.696 232.479 209.821 232.506 209.937 232.557C210.054 232.609 210.158 232.684 210.244 232.777C210.408 232.944 210.5 233.169 210.501 233.403Z" fill="#E3EDF9"/>
<path opacity="0.1" d="M198.393 233.18C198.411 233.253 198.421 233.328 198.42 233.403C198.418 233.65 198.32 233.886 198.145 234.061C197.971 234.235 197.735 234.334 197.488 234.335H196.093C195.846 234.335 195.609 234.237 195.434 234.062C195.259 233.888 195.161 233.651 195.161 233.403C195.157 233.367 195.157 233.331 195.161 233.294L198.393 233.18Z" fill="black"/>
<path opacity="0.1" d="M202.523 233.033C202.572 233.148 202.598 233.272 202.599 233.398C202.598 233.645 202.499 233.881 202.325 234.055C202.15 234.23 201.914 234.328 201.668 234.33H200.273C200.025 234.33 199.788 234.232 199.614 234.057C199.439 233.882 199.341 233.645 199.341 233.398C199.341 233.311 199.354 233.225 199.379 233.142L202.523 233.033Z" fill="black"/>
<path opacity="0.1" d="M206.179 232.908C206.271 233.055 206.32 233.225 206.321 233.398C206.32 233.645 206.221 233.881 206.047 234.055C205.872 234.23 205.636 234.328 205.389 234.33H203.994C203.747 234.33 203.51 234.232 203.335 234.057C203.161 233.882 203.063 233.645 203.063 233.398C203.06 233.264 203.088 233.132 203.144 233.011L206.179 232.908Z" fill="black"/>
<path opacity="0.1" d="M210.501 233.403C210.499 233.65 210.401 233.886 210.226 234.061C210.052 234.235 209.815 234.334 209.569 234.335H208.174C208.003 234.335 207.836 234.288 207.691 234.2C207.545 234.111 207.427 233.985 207.348 233.834C207.269 233.682 207.234 233.513 207.245 233.343C207.256 233.173 207.313 233.009 207.411 232.869L210.244 232.771C210.41 232.94 210.502 233.167 210.501 233.403Z" fill="black"/>
<path d="M218.86 237.12H191.914V235.894C191.913 235.349 192.124 234.826 192.503 234.435C192.881 234.043 193.397 233.814 193.941 233.796L215.552 233.049C215.981 233.035 216.409 233.106 216.81 233.261C217.211 233.415 217.577 233.648 217.886 233.946C218.195 234.245 218.441 234.602 218.61 234.998C218.778 235.393 218.865 235.818 218.865 236.248L218.86 237.12Z" fill="#D6D6E3"/>
<path d="M351.802 233.365C351.77 235.3 353.165 236.885 354.892 236.885H387.522V233.485H360.352C359.181 233.485 358.45 232.068 359.039 230.935L383.647 180.885C383.821 180.524 384.091 180.218 384.428 180.001C384.764 179.784 385.154 179.663 385.554 179.653H397.733V173.931H382.372C382.096 173.942 381.829 174.027 381.597 174.178C381.366 174.328 381.18 174.539 381.059 174.787L352.849 229.278C352.19 230.542 351.832 231.941 351.802 233.365Z" fill="#535461"/>
<path d="M411.705 224.287L412.152 225.039L416.331 222.249L403.4 122.818H400.071C400.071 122.818 399.935 123.276 399.711 124.148C397.477 132.741 386.508 181.408 411.705 224.287Z" fill="#535461"/>
<path opacity="0.1" d="M399.711 124.148L411.699 224.287L412.146 225.039L416.326 222.249L403.4 122.818H400.071C400.071 122.818 399.935 123.292 399.711 124.148Z" fill="black"/>
<path d="M407.851 121.779L400.006 122.719L412.272 225.134L420.118 224.194L407.851 121.779Z" fill="#D6D6E3"/>
<path d="M446.994 233.403C446.995 233.65 447.094 233.886 447.268 234.061C447.443 234.235 447.679 234.334 447.925 234.335H449.32C449.568 234.335 449.805 234.237 449.979 234.062C450.154 233.888 450.252 233.651 450.252 233.403C450.257 233.367 450.257 233.331 450.252 233.294C450.224 233.069 450.116 232.862 449.946 232.712C449.777 232.562 449.558 232.478 449.331 232.477H447.936C447.729 232.479 447.529 232.55 447.366 232.678C447.203 232.806 447.088 232.985 447.037 233.185C447.013 233.256 446.999 233.329 446.994 233.403Z" fill="#E3EDF9"/>
<path d="M442.814 233.403C442.816 233.65 442.914 233.886 443.089 234.061C443.263 234.235 443.499 234.334 443.746 234.335H445.141C445.263 234.335 445.384 234.311 445.497 234.264C445.611 234.217 445.713 234.149 445.8 234.062C445.886 233.976 445.955 233.873 446.002 233.76C446.049 233.647 446.073 233.526 446.073 233.403C446.072 233.317 446.059 233.23 446.035 233.147C445.993 232.996 445.912 232.859 445.8 232.749C445.715 232.663 445.613 232.594 445.501 232.547C445.389 232.5 445.268 232.476 445.146 232.477H443.724C443.544 232.476 443.368 232.527 443.216 232.624C443.065 232.72 442.944 232.859 442.869 233.022C442.825 233.144 442.806 233.274 442.814 233.403Z" fill="#E3EDF9"/>
<path d="M439.098 233.403C439.099 233.65 439.198 233.886 439.372 234.061C439.547 234.235 439.783 234.334 440.03 234.335H441.425C441.672 234.335 441.909 234.237 442.083 234.062C442.258 233.888 442.356 233.651 442.356 233.403C442.359 233.27 442.331 233.138 442.275 233.016C442.199 232.856 442.08 232.719 441.931 232.623C441.781 232.527 441.608 232.474 441.43 232.472H440.035C439.913 232.471 439.791 232.494 439.678 232.541C439.564 232.588 439.461 232.656 439.375 232.743C439.288 232.83 439.219 232.933 439.173 233.046C439.126 233.159 439.103 233.281 439.103 233.403H439.098Z" fill="#E3EDF9"/>
<path d="M434.913 233.403C434.914 233.65 435.013 233.886 435.187 234.061C435.362 234.235 435.598 234.334 435.845 234.335H437.24C437.41 234.335 437.577 234.288 437.723 234.2C437.868 234.111 437.987 233.985 438.065 233.834C438.144 233.682 438.18 233.513 438.169 233.343C438.158 233.173 438.1 233.009 438.003 232.869L437.894 232.749C437.808 232.663 437.707 232.594 437.594 232.547C437.482 232.5 437.361 232.476 437.24 232.477H435.845C435.718 232.479 435.592 232.506 435.476 232.557C435.36 232.609 435.255 232.684 435.169 232.777C435.005 232.944 434.913 233.169 434.913 233.403Z" fill="#E3EDF9"/>
<path opacity="0.1" d="M447.021 233.18C447.002 233.253 446.993 233.328 446.994 233.403C446.995 233.65 447.094 233.886 447.268 234.061C447.443 234.235 447.679 234.334 447.925 234.335H449.32C449.568 234.335 449.805 234.237 449.979 234.062C450.154 233.888 450.252 233.651 450.252 233.403C450.257 233.367 450.257 233.331 450.252 233.294L447.021 233.18Z" fill="black"/>
<path opacity="0.1" d="M442.89 233.033C442.841 233.148 442.815 233.272 442.814 233.398C442.816 233.645 442.914 233.881 443.089 234.055C443.263 234.23 443.499 234.328 443.746 234.33H445.141C445.263 234.33 445.384 234.306 445.498 234.259C445.611 234.212 445.713 234.143 445.8 234.057C445.886 233.97 445.955 233.868 446.002 233.755C446.049 233.641 446.073 233.52 446.073 233.398C446.072 233.311 446.059 233.225 446.035 233.142L442.89 233.033Z" fill="black"/>
<path opacity="0.1" d="M439.234 232.908C439.142 233.055 439.093 233.225 439.092 233.398C439.094 233.645 439.192 233.881 439.367 234.055C439.541 234.23 439.778 234.328 440.024 234.33H441.419C441.666 234.33 441.903 234.232 442.078 234.057C442.253 233.882 442.351 233.645 442.351 233.398C442.353 233.264 442.325 233.132 442.269 233.011L439.234 232.908Z" fill="black"/>
<path opacity="0.1" d="M434.913 233.403C434.914 233.65 435.013 233.886 435.187 234.061C435.362 234.235 435.598 234.334 435.845 234.335H437.24C437.41 234.335 437.577 234.288 437.723 234.2C437.868 234.111 437.987 233.985 438.066 233.834C438.144 233.682 438.18 233.513 438.169 233.343C438.158 233.173 438.1 233.009 438.003 232.869L435.169 232.771C435.004 232.94 434.912 233.167 434.913 233.403Z" fill="black"/>
<path d="M426.554 237.12H453.5V235.894C453.5 235.349 453.289 234.826 452.911 234.435C452.532 234.043 452.017 233.814 451.473 233.796L429.862 233.049C429.432 233.035 429.004 233.106 428.603 233.261C428.202 233.415 427.836 233.648 427.527 233.946C427.218 234.245 426.972 234.602 426.804 234.998C426.636 235.393 426.549 235.818 426.548 236.248L426.554 237.12Z" fill="#D6D6E3"/>
<path d="M539.34 251.892C551.912 230.57 547.356 187.56 547.863 186.737C548.315 186.012 546.582 165.758 535.03 160.81C532.943 156.674 530.889 152.015 530.889 152.015C530.687 152.205 530.464 152.371 530.224 152.511C530.133 152.264 530.044 152.013 529.957 151.759C529.81 151.328 529.674 150.887 529.537 150.446C529.861 150.549 530.19 150.633 530.524 150.696C531.405 150.911 532.332 150.829 533.161 150.462C533.444 150.31 533.7 150.113 533.918 149.879C534.828 149.274 535.33 148.184 535.755 147.154L539.117 139.1C540.632 135.466 542.158 131.809 542.964 127.957C544.164 122.159 543.699 116.141 541.624 110.596C540.828 108.482 539.727 106.367 537.858 105.103C534.115 102.564 528.905 104.319 524.628 102.831C523.222 102.34 521.952 101.512 520.546 101.011C517.511 99.921 514.084 100.504 511.163 101.861C508.242 103.218 505.877 105.376 503.322 107.31C502.063 108.275 500.052 109.272 498.57 110.58C497.131 111.702 496.025 113.059 496.238 114.846C496.477 116.89 498.63 118.116 500.635 118.595C500.967 118.672 501.311 118.732 501.649 118.791C499.269 121.203 497.554 124.189 496.671 127.46C495.788 130.731 495.767 134.174 496.61 137.456C497.454 140.737 499.132 143.744 501.483 146.184C503.834 148.623 506.776 150.413 510.024 151.377C511.047 153.297 511.932 155.288 512.672 157.333C512.77 157.613 512.867 157.895 512.961 158.178C509.659 159.115 507.076 159.894 506.558 160.325C504.994 161.622 508.269 172.978 508.269 172.978C507.436 174.035 506.586 175.239 505.725 176.531C499.195 186.448 495.062 197.747 493.649 209.536C493.104 213.846 492.396 218.255 491.497 222.445L452.443 214.615L452.361 215.579L451.429 215.35L448.498 214.626L448.383 215.285L447.936 215.072C440.673 211.667 428.434 207.318 420.146 211.803C411.4 216.511 430.276 222.767 442.389 226.096C438.373 226.292 434.531 227.257 431.491 229.513C422.707 236.095 447.549 239.523 459.281 240.738L459.756 240.787V241.038L463.821 241.414L464.774 241.501L464.867 242.95C464.867 242.95 470.687 243.904 478.462 245.059C469.586 247.277 458.617 248.814 450.999 249.713C442.923 250.661 436.046 256.284 433.878 264.126C433.177 266.374 433.109 268.772 433.681 271.057C435.948 278.975 433.18 337.221 432.553 349.764L418.195 358.031C418.195 358.031 395.853 360.755 410.735 365.992C412.076 366.45 413.447 366.814 414.838 367.082C412.877 368.346 413.045 369.997 418.827 372.024C433.72 377.245 468.338 371.795 468.338 371.795C468.338 371.795 467.581 365.66 466.349 360.559L466.73 360.592C466.73 360.592 463.156 347.291 468.578 340.583C474 333.875 467.668 282.822 467.668 282.822C467.668 282.822 477.16 278.893 505.534 278.637C528.42 284.511 539.575 263.483 539.417 252.612C539.368 252.366 539.357 252.116 539.34 251.892Z" fill="url(#paint0_linear)"/>
<path d="M454.759 218.849L452.334 228.657C452.334 228.657 450.154 228.167 446.885 227.328C435.812 224.461 412.457 217.579 421.819 212.528C429.889 208.168 441.773 212.408 448.83 215.715C451.413 216.931 453.353 218.02 454.219 218.533C454.584 218.74 454.759 218.849 454.759 218.849Z" fill="#F8B9BF"/>
<path opacity="0.1" d="M454.078 221.617L452.334 228.701C452.334 228.701 450.154 228.21 446.885 227.371L448.852 215.759C451.435 216.974 453.375 218.064 454.241 218.576L454.078 221.617Z" fill="black"/>
<path d="M454.083 229.371L447.315 227.698L449.419 215.296L454.83 216.631L454.083 229.371Z" fill="#D9DFE8"/>
<path opacity="0.1" d="M454.083 229.371L451.162 228.652L452.263 215.999L454.83 216.631L454.083 229.371Z" fill="black"/>
<path d="M519.386 178.002C519.386 178.002 506.389 170.493 500.613 192.033C494.837 213.574 494.292 223.497 494.292 223.497L453.249 215.29L451.947 230.281C451.947 230.281 495.829 244.449 501.349 243.419C506.869 242.389 524.78 212.359 524.78 212.359C524.78 212.359 541.062 189.085 519.386 178.002Z" fill="#790E8B"/>
<g opacity="0.1">
<path opacity="0.1" d="M454.759 218.849L452.334 228.657C452.334 228.657 450.154 228.167 446.885 227.328C435.812 224.461 412.457 217.579 421.819 212.528C429.889 208.168 441.773 212.408 448.83 215.715C451.413 216.931 453.353 218.02 454.219 218.533C454.584 218.74 454.759 218.849 454.759 218.849Z" fill="black"/>
<path opacity="0.1" d="M454.078 221.617L452.334 228.701C452.334 228.701 450.154 228.21 446.885 227.371L448.852 215.759C451.435 216.974 453.375 218.064 454.241 218.576L454.078 221.617Z" fill="black"/>
<path opacity="0.1" d="M454.083 229.371L447.315 227.698L449.419 215.296L454.83 216.631L454.083 229.371Z" fill="black"/>
<path opacity="0.1" d="M454.083 229.371L451.162 228.652L452.263 215.999L454.83 216.631L454.083 229.371Z" fill="black"/>
<path opacity="0.1" d="M519.386 178.547C519.386 178.547 506.389 171.038 500.613 192.578C494.837 214.119 494.292 224.042 494.292 224.042L453.249 215.835L451.947 230.826C451.947 230.826 495.829 244.994 501.349 243.964C506.869 242.934 524.78 212.904 524.78 212.904C524.78 212.904 541.062 189.63 519.386 178.547Z" fill="black"/>
</g>
<path d="M436.722 344.909L419.966 354.56C419.966 354.56 398.256 357.219 412.719 362.287C427.181 367.354 460.802 362.063 460.802 362.063C460.802 362.063 458.933 346.958 456.328 344.849C453.723 342.741 436.722 344.909 436.722 344.909Z" fill="#68739D"/>
<path d="M502.03 236.635C502.03 236.635 493.693 240.994 478.882 244.759C470.202 246.939 459.336 248.487 451.827 249.369C447.983 249.788 444.35 251.339 441.389 253.825C438.428 256.312 436.273 259.622 435.196 263.336C434.511 265.527 434.445 267.866 435.006 270.093C437.474 278.719 433.79 348.838 433.79 348.838L459.238 351.192C459.238 351.192 455.767 338.272 461.036 331.761C466.305 325.249 460.153 275.683 460.153 275.683C460.153 275.683 469.373 271.869 496.924 271.618C522.448 278.157 532.965 250.219 529.025 242.389C525.085 234.559 502.03 236.635 502.03 236.635Z" fill="#6394E2"/>
<g opacity="0.1">
<path opacity="0.1" d="M436.722 344.909L419.966 354.56C419.966 354.56 398.256 357.219 412.719 362.287C427.181 367.354 460.802 362.063 460.802 362.063C460.802 362.063 458.933 346.958 456.328 344.849C453.723 342.741 436.722 344.909 436.722 344.909Z" fill="black"/>
<path opacity="0.1" d="M502.03 236.635C502.03 236.635 493.693 240.994 478.882 244.759C470.202 246.939 459.336 248.487 451.827 249.369C447.983 249.788 444.35 251.339 441.389 253.825C438.428 256.312 436.273 259.622 435.196 263.336C434.511 265.527 434.445 267.866 435.006 270.093C437.474 278.719 433.79 348.838 433.79 348.838L459.238 351.192C459.238 351.192 455.767 338.272 461.036 331.761C466.305 325.249 460.153 275.683 460.153 275.683C460.153 275.683 469.373 271.869 496.924 271.618C522.448 278.157 532.965 250.219 529.025 242.389C525.085 234.559 502.03 236.635 502.03 236.635Z" fill="black"/>
</g>
<path d="M444.58 350.767L427.824 360.418C427.824 360.418 406.125 363.055 420.576 368.145C435.027 373.234 468.66 367.921 468.66 367.921C468.66 367.921 466.79 352.816 464.186 350.707C461.581 348.598 444.58 350.767 444.58 350.767Z" fill="#68739D"/>
<path d="M504.755 277.476C477.204 277.727 467.984 281.541 467.984 281.541C467.984 281.541 474.136 331.128 468.867 337.618C463.597 344.108 467.068 357.05 467.068 357.05L441.621 354.696C441.621 354.696 441.664 353.868 441.735 352.386C442.346 340.201 445.032 283.639 442.825 275.95C442.268 273.73 442.334 271.4 443.016 269.215C444.087 265.497 446.24 262.18 449.2 259.688C452.16 257.195 455.794 255.639 459.641 255.216C467.145 254.339 478.01 252.813 486.691 250.606L487.116 250.497C501.665 246.759 509.839 242.482 509.839 242.482C509.839 242.482 532.894 240.411 536.834 248.241C537.389 249.483 537.665 250.832 537.64 252.192C537.836 262.758 526.993 283.181 504.755 277.476Z" fill="#6394E2"/>
<path d="M466.376 231.071L465.444 241.152C465.444 241.152 463.205 240.994 459.875 240.645C448.503 239.463 424.38 236.139 432.908 229.747C440.242 224.254 452.623 226.652 460.093 228.875C462.818 229.693 464.91 230.483 465.842 230.859C466.186 230.989 466.376 231.071 466.376 231.071Z" fill="#F8B9BF"/>
<path d="M534.06 165.164C534.06 165.164 530.649 167.834 526.48 170.765C521.909 171.801 516.601 172.656 512.776 173.212C514.143 168.853 513.321 163.949 511.779 159.649C510.101 155.157 507.799 150.923 504.94 147.073L528.001 139.874C526.192 144.457 527.009 149.683 528.546 154.227C529.902 158.096 531.756 161.772 534.06 165.164Z" fill="#F8B9BF"/>
<path opacity="0.1" d="M466.115 233.91L465.444 241.152C465.444 241.152 463.205 240.994 459.875 240.645L460.093 228.87C462.818 229.687 464.91 230.477 465.842 230.853L466.115 233.91Z" fill="black"/>
<path d="M467.275 241.577L460.333 240.934L460.562 228.357L466.115 228.87L467.275 241.577Z" fill="#D9DFE8"/>
<path opacity="0.1" d="M534.06 165.164C534.06 165.164 530.649 167.834 526.48 170.765C521.909 171.801 516.601 172.656 512.776 173.212C514.143 168.853 513.321 163.949 511.779 159.649C517.413 158.014 525.472 155.9 528.551 154.2C529.904 158.078 531.756 161.764 534.06 165.164Z" fill="black"/>
<path d="M529.45 154.472C529.45 154.472 533.308 163.229 535.738 167.185C538.169 171.141 507.501 174.814 507.501 174.814C507.501 174.814 504.319 163.791 505.839 162.526C507.359 161.262 526.884 157.034 529.45 154.472Z" fill="#D9DFE8"/>
<path opacity="0.1" d="M537.684 252.198C536.394 254.473 534.786 256.554 532.91 258.377C519.364 271.248 497.158 257.832 487.138 250.497C501.687 246.759 509.86 242.482 509.86 242.482C509.86 242.482 532.916 240.411 536.856 248.241C537.419 249.483 537.702 250.834 537.684 252.198Z" fill="black"/>
<path d="M532.998 257.456C517.598 272.081 491.039 252.715 483.879 247.01C482.718 246.084 482.07 245.511 482.07 245.511C484.898 242.863 487.383 237.251 489.35 230.385C491.183 223.816 492.508 217.115 493.311 210.343C494.682 198.892 498.697 187.918 505.038 178.285C505.872 177.032 506.673 175.86 507.506 174.836C513.321 167.441 523.091 162.744 523.091 162.744C543.711 156.718 546.484 187.304 545.934 188.186C545.383 189.069 550.898 240.449 532.998 257.456Z" fill="#790E8B"/>
<path opacity="0.1" d="M534.992 215.645C534.992 215.645 521.734 248.013 516.432 249.86C513.397 250.912 497.186 248.917 483.879 247.015C482.718 246.089 482.07 245.517 482.07 245.517C484.898 242.869 487.383 237.256 489.35 230.39L506.487 231.207C506.487 231.207 505.534 221.323 508.051 199.155C510.569 176.988 524.524 182.481 524.524 182.481C547.612 190.213 534.992 215.645 534.992 215.645Z" fill="black"/>
<path opacity="0.1" d="M467.275 241.577L464.278 241.299L463.483 228.63L466.115 228.87L467.275 241.577Z" fill="black"/>
<path d="M524.192 181.053C524.192 181.053 510.236 175.566 507.719 197.728C505.201 219.89 506.155 229.78 506.155 229.78L464.344 227.78L465.286 242.798C465.286 242.798 510.792 250.269 516.094 248.427C521.396 246.585 534.654 214.211 534.654 214.211C534.654 214.211 547.258 188.78 524.192 181.053Z" fill="#790E8B"/>
<path opacity="0.1" d="M525.129 148.239C524.519 144.926 527.979 144.969 529.221 141.852L506.161 149.051C507.761 151.2 509.19 153.472 510.433 155.846C511.629 156.201 512.857 156.438 514.1 156.554C519.598 157.077 521.315 151.666 525.129 148.239Z" fill="black"/>
<path d="M533.585 137.35C534.553 126.873 526.845 117.596 516.369 116.627C505.892 115.659 496.614 123.367 495.646 133.844C494.678 144.32 502.386 153.598 512.863 154.566C523.339 155.534 532.617 147.826 533.585 137.35Z" fill="#F8B9BF"/>
<path opacity="0.1" d="M495.818 118.388C496.052 120.372 498.145 121.581 500.09 122.028C502.035 122.475 504.144 122.497 505.85 123.538C508.574 125.216 509.31 128.943 508.967 132.147C508.776 133.956 508.504 136.174 509.986 137.226C510.451 137.511 510.971 137.697 511.512 137.771C513.058 138.084 514.645 138.139 516.209 137.934C517.124 137.814 518.067 137.607 518.933 137.863C520.361 138.278 521.206 139.782 521.483 141.236C521.761 142.691 521.609 144.206 521.832 145.672C522.144 147.507 523.004 149.205 524.3 150.542C525.595 151.879 527.266 152.791 529.09 153.159C529.946 153.367 530.846 153.287 531.652 152.93C532.687 152.385 533.215 151.225 533.662 150.14L536.932 142.315C538.403 138.79 539.885 135.232 540.67 131.493C541.835 125.863 541.384 120.018 539.368 114.634C538.594 112.585 537.526 110.531 535.711 109.299C532.077 106.831 526.993 108.536 522.862 107.119C521.494 106.645 520.263 105.839 518.901 105.354C515.953 104.302 512.623 104.858 509.784 106.182C506.945 107.506 504.651 109.593 502.155 111.495C499.992 113.179 495.409 114.961 495.818 118.388Z" fill="black"/>
<path d="M496.319 117.969C496.554 119.952 498.646 121.162 500.591 121.609C502.537 122.055 504.646 122.077 506.351 123.118C509.076 124.796 509.811 128.524 509.468 131.728C509.277 133.537 509.005 135.755 510.487 136.806C510.953 137.091 511.472 137.277 512.013 137.351C513.559 137.664 515.146 137.719 516.71 137.515C517.625 137.395 518.568 137.188 519.435 137.444C520.862 137.858 521.707 139.362 521.985 140.817C522.263 142.272 522.11 143.787 522.334 145.252C522.645 147.088 523.505 148.786 524.801 150.122C526.097 151.459 527.767 152.371 529.592 152.74C530.447 152.948 531.348 152.867 532.153 152.511C533.188 151.966 533.717 150.805 534.164 149.721L537.433 141.896C538.904 138.37 540.387 134.812 541.171 131.074C542.336 125.444 541.885 119.599 539.869 114.214C539.095 112.165 538.027 110.111 536.212 108.879C532.578 106.411 527.494 108.117 523.363 106.7C521.996 106.226 520.764 105.419 519.402 104.934C516.454 103.883 513.124 104.438 510.285 105.763C507.446 107.087 505.152 109.174 502.657 111.075C500.499 112.759 495.916 114.541 496.319 117.969Z" fill="#B96B6B"/>
<path opacity="0.1" d="M512.1 193.227C512.1 193.227 504.825 221.486 497.584 224.102C490.342 226.717 493.54 227.458 493.54 227.458" fill="black"/>
<path d="M512.443 296.75H504.537V348.718H512.443V296.75Z" fill="#D6D6E3"/>
<path opacity="0.1" d="M512.443 296.75H504.537V300.602H512.443V296.75Z" fill="black"/>
<path d="M488.718 296.477V297.567C488.718 297.903 488.784 298.235 488.912 298.545C489.041 298.855 489.229 299.137 489.466 299.374C489.704 299.612 489.985 299.8 490.295 299.928C490.605 300.057 490.938 300.123 491.273 300.123H525.701C526.037 300.123 526.369 300.057 526.679 299.928C526.989 299.8 527.271 299.612 527.508 299.374C527.746 299.137 527.934 298.855 528.062 298.545C528.191 298.235 528.257 297.903 528.257 297.567V296.477C528.257 296.142 528.191 295.809 528.062 295.499C527.934 295.189 527.746 294.907 527.508 294.67C527.271 294.433 526.989 294.245 526.679 294.116C526.369 293.988 526.037 293.922 525.701 293.922H491.273C490.938 293.922 490.605 293.988 490.295 294.116C489.985 294.245 489.704 294.433 489.466 294.67C489.229 294.907 489.041 295.189 488.912 295.499C488.784 295.809 488.718 296.142 488.718 296.477Z" fill="#D6D6E3"/>
<path opacity="0.1" d="M489.306 294.853H527.674C527.435 294.562 527.134 294.327 526.792 294.165C526.451 294.004 526.078 293.921 525.701 293.922H491.273C490.897 293.922 490.525 294.005 490.185 294.167C489.845 294.328 489.545 294.562 489.306 294.853Z" fill="black"/>
<path d="M537.978 345.89H479.013C477.358 345.89 476.016 347.232 476.016 348.887V349.105C476.016 350.76 477.358 352.102 479.013 352.102H537.978C539.633 352.102 540.975 350.76 540.975 349.105V348.887C540.975 347.232 539.633 345.89 537.978 345.89Z" fill="#D6D6E3"/>
<path d="M537.302 360.014C539.487 360.014 541.258 358.243 541.258 356.058C541.258 353.873 539.487 352.102 537.302 352.102C535.118 352.102 533.346 353.873 533.346 356.058C533.346 358.243 535.118 360.014 537.302 360.014Z" fill="#535461"/>
<path d="M479.683 360.014C481.868 360.014 483.639 358.243 483.639 356.058C483.639 353.873 481.868 352.102 479.683 352.102C477.498 352.102 475.727 353.873 475.727 356.058C475.727 358.243 477.498 360.014 479.683 360.014Z" fill="#535461"/>
<path d="M508.493 360.014C510.678 360.014 512.449 358.243 512.449 356.058C512.449 353.873 510.678 352.102 508.493 352.102C506.308 352.102 504.537 353.873 504.537 356.058C504.537 358.243 506.308 360.014 508.493 360.014Z" fill="#535461"/>
<path d="M557.595 232.918H504.722C502.164 232.918 500.09 234.992 500.09 237.55V237.888C500.09 240.446 502.164 242.52 504.722 242.52H557.595C560.153 242.52 562.227 240.446 562.227 237.888V237.55C562.227 234.992 560.153 232.918 557.595 232.918Z" fill="#D6D6E3"/>
<path opacity="0.1" d="M512.443 345.89C512.443 345.89 509.337 348.958 504.537 345.89H512.443Z" fill="black"/>
<path opacity="0.1" d="M562.227 237.817V238.575C562.227 239.622 561.811 240.627 561.07 241.368C560.329 242.109 559.324 242.525 558.276 242.525H504.041C502.993 242.525 501.988 242.109 501.247 241.368C500.506 240.627 500.09 239.622 500.09 238.575V237.817H562.227Z" fill="black"/>
<path d="M458.846 246.645H448.16V382.797H458.846V246.645Z" fill="#D6D6E3"/>
<path opacity="0.1" d="M458.846 246.645H448.16V255.472H458.846V246.645Z" fill="black"/>
<path d="M134.839 300.466H126.932V352.435H134.839V300.466Z" fill="#D6D6E3"/>
<path opacity="0.1" d="M134.839 300.466H126.932V304.319H134.839V300.466Z" fill="black"/>
<path d="M150.653 300.199V301.289C150.653 301.967 150.383 302.617 149.904 303.096C149.425 303.575 148.775 303.845 148.097 303.845H113.669C112.991 303.845 112.341 303.575 111.862 303.096C111.383 302.617 111.114 301.967 111.114 301.289V300.199C111.119 299.525 111.391 298.881 111.87 298.406C112.348 297.931 112.995 297.665 113.669 297.665H148.097C148.433 297.665 148.765 297.731 149.075 297.86C149.385 297.988 149.667 298.176 149.904 298.414C150.141 298.651 150.33 298.933 150.458 299.243C150.586 299.553 150.653 299.885 150.653 300.221V300.199Z" fill="#D6D6E3"/>
<path opacity="0.1" d="M150.07 298.57H111.697C111.938 298.283 112.241 298.053 112.582 297.897C112.923 297.74 113.294 297.661 113.669 297.665H148.097C148.472 297.661 148.844 297.74 149.185 297.897C149.526 298.053 149.828 298.283 150.07 298.57Z" fill="black"/>
<path d="M160.368 349.607H101.403C99.748 349.607 98.4062 350.948 98.4062 352.604V352.821C98.4062 354.477 99.748 355.819 101.403 355.819H160.368C162.024 355.819 163.365 354.477 163.365 352.821V352.604C163.365 350.948 162.024 349.607 160.368 349.607Z" fill="#D6D6E3"/>
<path d="M102.079 363.731C104.264 363.731 106.035 361.959 106.035 359.775C106.035 357.59 104.264 355.819 102.079 355.819C99.894 355.819 98.1228 357.59 98.1228 359.775C98.1228 361.959 99.894 363.731 102.079 363.731Z" fill="#535461"/>
<path d="M159.693 363.731C161.878 363.731 163.649 361.959 163.649 359.775C163.649 357.59 161.878 355.819 159.693 355.819C157.508 355.819 155.737 357.59 155.737 359.775C155.737 361.959 157.508 363.731 159.693 363.731Z" fill="#535461"/>
<path d="M130.883 363.731C133.068 363.731 134.839 361.959 134.839 359.775C134.839 357.59 133.068 355.819 130.883 355.819C128.698 355.819 126.927 357.59 126.927 359.775C126.927 361.959 128.698 363.731 130.883 363.731Z" fill="#535461"/>
<path opacity="0.1" d="M126.932 349.607C126.932 349.607 130.038 352.674 134.839 349.607H126.932Z" fill="black"/>
<path d="M328.644 193.161C328.644 193.161 319.772 177.037 323.015 163.022C324.411 157.152 323.866 150.988 321.462 145.454C320.307 142.837 318.915 140.331 317.304 137.967" stroke="#535461" stroke-width="2" stroke-miterlimit="10"/>
<path d="M319.271 129.118C319.734 131.232 317.255 138.201 317.255 138.201C317.255 138.201 312.084 132.916 311.615 130.801C311.458 130.285 311.41 129.741 311.473 129.205C311.536 128.668 311.71 128.151 311.983 127.685C312.255 127.219 312.622 126.814 313.058 126.496C313.495 126.178 313.992 125.954 314.52 125.838C315.047 125.721 315.593 125.715 316.123 125.82C316.652 125.924 317.155 126.137 317.599 126.445C318.042 126.753 318.417 127.15 318.7 127.61C318.984 128.069 319.169 128.583 319.244 129.118H319.271Z" fill="#790E8B"/>
<path d="M328.17 139.433C327.412 141.46 321.543 145.972 321.543 145.972C321.543 145.972 320.072 138.724 320.835 136.708C320.998 136.206 321.262 135.742 321.609 135.345C321.956 134.947 322.38 134.623 322.855 134.394C323.33 134.164 323.847 134.032 324.375 134.007C324.902 133.982 325.429 134.064 325.924 134.248C326.419 134.431 326.872 134.713 327.255 135.076C327.638 135.44 327.944 135.876 328.154 136.361C328.365 136.845 328.475 137.367 328.478 137.895C328.482 138.423 328.379 138.946 328.175 139.433H328.17Z" fill="#790E8B"/>
<path d="M332.289 159.497C330.611 160.864 323.271 161.785 323.271 161.785C323.271 161.785 325.663 154.789 327.341 153.421C327.74 153.091 328.199 152.843 328.694 152.691C329.189 152.54 329.708 152.488 330.223 152.538C330.738 152.588 331.238 152.74 331.694 152.985C332.15 153.23 332.553 153.562 332.879 153.963C333.206 154.364 333.45 154.826 333.597 155.322C333.745 155.818 333.792 156.339 333.737 156.853C333.682 157.367 333.526 157.866 333.278 158.32C333.029 158.773 332.693 159.173 332.289 159.497Z" fill="#790E8B"/>
<path d="M331.989 175.375C330.567 177.01 323.489 179.157 323.489 179.157C323.489 179.157 324.66 171.855 326.082 170.226C326.415 169.82 326.826 169.486 327.29 169.242C327.755 168.998 328.263 168.85 328.786 168.806C329.309 168.763 329.835 168.824 330.334 168.988C330.832 169.152 331.293 169.414 331.688 169.758C332.083 170.103 332.405 170.524 332.635 170.996C332.864 171.467 332.997 171.98 333.024 172.504C333.052 173.028 332.974 173.552 332.795 174.045C332.617 174.539 332.341 174.991 331.984 175.375H331.989Z" fill="#790E8B"/>
<path d="M313.598 148.135C315.44 149.274 322.835 149.225 322.835 149.225C322.835 149.225 319.565 142.593 317.724 141.454C317.286 141.167 316.796 140.97 316.281 140.875C315.766 140.78 315.238 140.789 314.726 140.902C314.215 141.015 313.732 141.229 313.305 141.532C312.878 141.835 312.516 142.22 312.24 142.665C311.965 143.11 311.781 143.606 311.7 144.123C311.619 144.64 311.643 145.168 311.769 145.676C311.896 146.184 312.123 146.661 312.437 147.08C312.751 147.498 313.146 147.85 313.598 148.113V148.135Z" fill="#790E8B"/>
<path d="M313.49 166.717C315.587 167.262 322.633 165.017 322.633 165.017C322.633 165.017 317.527 159.666 315.429 159.132C314.44 158.921 313.408 159.101 312.548 159.635C311.689 160.168 311.069 161.013 310.819 161.993C310.568 162.973 310.706 164.012 311.204 164.892C311.702 165.773 312.521 166.426 313.49 166.717Z" fill="#790E8B"/>
<path d="M315.849 184.786C317.822 185.669 325.151 184.655 325.151 184.655C325.151 184.655 321.02 178.52 319.048 177.637C318.099 177.213 317.02 177.183 316.05 177.554C315.079 177.925 314.295 178.666 313.871 179.615C313.447 180.564 313.417 181.642 313.788 182.613C314.159 183.584 314.9 184.367 315.849 184.792V184.786Z" fill="#790E8B"/>
<path d="M319.271 129.118C319.734 131.232 317.255 138.201 317.255 138.201C317.255 138.201 312.084 132.916 311.615 130.801C311.458 130.285 311.41 129.741 311.473 129.205C311.536 128.668 311.71 128.151 311.983 127.685C312.255 127.219 312.622 126.814 313.058 126.496C313.495 126.178 313.992 125.954 314.52 125.838C315.047 125.721 315.593 125.715 316.123 125.82C316.652 125.924 317.155 126.137 317.599 126.445C318.042 126.753 318.417 127.15 318.7 127.61C318.984 128.069 319.169 128.583 319.244 129.118H319.271Z" fill="#790E8B"/>
<path d="M328.17 139.433C327.412 141.46 321.543 145.972 321.543 145.972C321.543 145.972 320.072 138.724 320.835 136.708C320.998 136.206 321.262 135.742 321.609 135.345C321.956 134.947 322.38 134.623 322.855 134.394C323.33 134.164 323.847 134.032 324.375 134.007C324.902 133.982 325.429 134.064 325.924 134.248C326.419 134.431 326.872 134.713 327.255 135.076C327.638 135.44 327.944 135.876 328.154 136.361C328.365 136.845 328.475 137.367 328.478 137.895C328.482 138.423 328.379 138.946 328.175 139.433H328.17Z" fill="#790E8B"/>
<path d="M332.289 159.497C330.611 160.864 323.271 161.785 323.271 161.785C323.271 161.785 325.663 154.789 327.341 153.421C327.74 153.091 328.199 152.843 328.694 152.691C329.189 152.54 329.708 152.488 330.223 152.538C330.738 152.588 331.238 152.74 331.694 152.985C332.15 153.23 332.553 153.562 332.879 153.963C333.206 154.364 333.45 154.826 333.597 155.322C333.745 155.818 333.792 156.339 333.737 156.853C333.682 157.367 333.526 157.866 333.278 158.32C333.029 158.773 332.693 159.173 332.289 159.497Z" fill="#790E8B"/>
<path d="M331.989 175.375C330.567 177.01 323.489 179.157 323.489 179.157C323.489 179.157 324.66 171.855 326.082 170.226C326.415 169.82 326.826 169.486 327.29 169.242C327.755 168.998 328.263 168.85 328.786 168.806C329.309 168.763 329.835 168.824 330.334 168.988C330.832 169.152 331.293 169.414 331.688 169.758C332.083 170.103 332.405 170.524 332.635 170.996C332.864 171.467 332.997 171.98 333.024 172.504C333.052 173.028 332.974 173.552 332.795 174.045C332.617 174.539 332.341 174.991 331.984 175.375H331.989Z" fill="#790E8B"/>
<path d="M313.598 148.135C315.44 149.274 322.835 149.225 322.835 149.225C322.835 149.225 319.565 142.593 317.724 141.454C317.286 141.167 316.796 140.97 316.281 140.875C315.766 140.78 315.238 140.789 314.726 140.902C314.215 141.015 313.732 141.229 313.305 141.532C312.878 141.835 312.516 142.22 312.24 142.665C311.965 143.11 311.781 143.606 311.7 144.123C311.619 144.64 311.643 145.168 311.769 145.676C311.896 146.184 312.123 146.661 312.437 147.08C312.751 147.498 313.146 147.85 313.598 148.113V148.135Z" fill="#790E8B"/>
<path d="M313.49 166.717C315.587 167.262 322.633 165.017 322.633 165.017C322.633 165.017 317.527 159.666 315.429 159.132C314.44 158.921 313.408 159.101 312.548 159.635C311.689 160.168 311.069 161.013 310.819 161.993C310.568 162.973 310.706 164.012 311.204 164.892C311.702 165.773 312.521 166.426 313.49 166.717Z" fill="#790E8B"/>
<path d="M315.849 184.786C317.822 185.669 325.151 184.655 325.151 184.655C325.151 184.655 321.02 178.52 319.048 177.637C318.099 177.213 317.02 177.183 316.05 177.554C315.079 177.925 314.295 178.666 313.871 179.615C313.447 180.564 313.417 181.642 313.788 182.613C314.159 183.584 314.9 184.367 315.849 184.792V184.786Z" fill="#790E8B"/>
<path d="M325.036 237.883C323.76 237.883 322.497 237.622 321.326 237.115C320.154 236.608 319.099 235.867 318.226 234.936C317.352 234.006 316.678 232.906 316.246 231.706C315.814 230.505 315.632 229.228 315.713 227.954L318.323 186.595H331.75L334.36 227.954C334.44 229.228 334.259 230.505 333.826 231.706C333.394 232.906 332.721 234.006 331.847 234.936C330.973 235.867 329.918 236.608 328.747 237.115C327.575 237.622 326.313 237.883 325.036 237.883Z" fill="#790E8B"/>
<path opacity="0.1" d="M53.1837 34.5585H45.5549V66.1636H53.1837V34.5585Z" fill="#790E8B"/>
<path opacity="0.1" d="M62.9922 34.5585H55.3633V66.1636H62.9922V34.5585Z" fill="#790E8B"/>
<path opacity="0.1" d="M72.8006 34.5585H65.1718V66.1636H72.8006V34.5585Z" fill="#790E8B"/>
<path opacity="0.1" d="M82.6091 34.5585H74.9803V66.1636H82.6091V34.5585Z" fill="#790E8B"/>
<path opacity="0.1" d="M102.226 34.5585H94.5972V66.1636H102.226V34.5585Z" fill="#790E8B"/>
<path opacity="0.1" d="M112.035 34.5585H104.406V66.1636H112.035V34.5585Z" fill="#790E8B"/>
<path opacity="0.1" d="M53.1837 40.5526H45.5549V42.1873H53.1837V40.5526Z" fill="#790E8B"/>
<path opacity="0.1" d="M53.1837 60.1695H45.5549V61.8042H53.1837V60.1695Z" fill="#790E8B"/>
<path opacity="0.1" d="M62.9922 40.5526H55.3633V42.1873H62.9922V40.5526Z" fill="#790E8B"/>
<path opacity="0.1" d="M62.9922 60.1695H55.3633V61.8042H62.9922V60.1695Z" fill="#790E8B"/>
<path opacity="0.1" d="M72.8006 40.5526H65.1718V42.1873H72.8006V40.5526Z" fill="#790E8B"/>
<path opacity="0.1" d="M72.8006 60.1695H65.1718V61.8042H72.8006V60.1695Z" fill="#790E8B"/>
<path opacity="0.1" d="M82.6091 40.5526H74.9803V42.1873H82.6091V40.5526Z" fill="#790E8B"/>
<path opacity="0.1" d="M82.6091 60.1695H74.9803V61.8042H82.6091V60.1695Z" fill="#790E8B"/>
<path opacity="0.1" d="M92.4176 40.5526H84.7888V42.1873H92.4176V40.5526Z" fill="#790E8B"/>
<path opacity="0.1" d="M92.4176 60.1695H84.7888V61.8042H92.4176V60.1695Z" fill="#790E8B"/>
<path opacity="0.1" d="M102.226 40.5526H94.5972V42.1873H102.226V40.5526Z" fill="#790E8B"/>
<path opacity="0.1" d="M102.226 60.1695H94.5972V61.8042H102.226V60.1695Z" fill="#790E8B"/>
<path opacity="0.1" d="M112.035 40.5526H104.406V42.1873H112.035V40.5526Z" fill="#790E8B"/>
<path opacity="0.1" d="M112.035 60.1695H104.406V61.8042H112.035V60.1695Z" fill="#790E8B"/>
<path opacity="0.1" d="M92.4176 34.5585H84.7888V66.1636H92.4176V34.5585Z" fill="#790E8B"/>
<path opacity="0.1" d="M119.209 34.4135L112.286 37.6183L125.562 66.2994L132.486 63.0946L119.209 34.4135Z" fill="#790E8B"/>
<path opacity="0.1" d="M121.729 39.8583L114.806 43.063L115.493 44.5465L122.416 41.3418L121.729 39.8583Z" fill="#790E8B"/>
<path opacity="0.1" d="M129.965 57.6584L123.042 60.8631L123.729 62.3466L130.652 59.1419L129.965 57.6584Z" fill="#790E8B"/>
<path d="M212.048 360.445L198.202 351.612C198.131 339.171 197.935 281.416 200.523 273.689C201.191 271.452 201.228 269.074 200.632 266.818C198.834 258.965 192.273 253.102 184.323 251.811C176.825 250.59 166.036 248.59 157.35 246.007C165.093 245.206 170.896 244.514 170.896 244.514L171.049 243.081L176.035 242.841V242.629L176.509 242.602C188.154 241.909 212.882 239.604 204.479 232.706C201.597 230.341 197.837 229.224 193.87 228.848C206 226.08 224.957 220.718 216.506 215.677C208.473 210.893 196.175 214.653 188.835 217.71L188.382 217.901L188.301 217.241L185.369 217.83L184.437 218.015L184.394 217.056L143.258 223.41C142.936 218.696 142.375 214.002 141.58 209.345C142.501 203.21 146.784 194.262 145.274 189.461C143.52 183.887 136.316 182.061 133.286 177.026C132.491 175.713 131.7 174.482 130.927 173.403C129.233 171.101 127.287 168.998 125.123 167.131C125.254 163.893 125.978 160.707 127.259 157.731C128.081 155.74 129.042 153.81 130.137 151.955C134.931 150.766 139.092 147.792 141.769 143.64C144.446 139.488 145.439 134.472 144.544 129.613C147.149 130.731 150.315 130.845 151.944 128.665L151.17 128.366C151.247 128.284 151.323 128.202 151.388 128.109C149.803 127.505 148.119 126.818 146.876 125.717C146.562 125.364 146.296 124.97 146.086 124.546C145.334 123.02 145.421 121.189 144.702 119.641C144.364 118.937 143.883 118.31 143.291 117.8C142.029 116.509 140.433 115.596 138.681 115.162C136.714 114.59 134.643 114.301 132.758 113.528C130.188 110.544 126.796 108.384 123.005 107.318C119.215 106.252 115.194 106.327 111.446 107.533L110.765 107.768C111.238 105.487 110.797 103.112 109.536 101.153C108.275 99.1944 106.296 97.8089 104.024 97.2946C101.753 96.7804 99.3698 97.1786 97.3886 98.4036C95.4074 99.6285 93.9863 101.582 93.4311 103.844C93.6038 101.858 94.4408 99.9887 95.8069 98.5369C95.6652 98.6568 95.5181 98.7713 95.3819 98.8966C94.531 99.6966 93.846 100.656 93.3661 101.721C92.8862 102.786 92.6206 103.935 92.5847 105.102C92.5488 106.269 92.7431 107.432 93.1567 108.525C93.5703 109.617 94.1949 110.617 94.995 111.468L95.153 111.62C95.7822 112.39 96.5354 113.049 97.3817 113.571C95.8242 113.021 94.4507 112.048 93.4151 110.761C92.3795 109.475 91.7227 107.925 91.5184 106.286C91.5184 106.471 91.5184 106.656 91.5184 106.831C91.5864 108.002 91.8854 109.148 92.3981 110.203C92.9108 111.258 93.6272 112.201 94.506 112.978C95.3847 113.755 96.4085 114.35 97.5184 114.73C98.6282 115.109 99.8022 115.266 100.973 115.19L101.218 115.162L101.087 115.342C98.553 119.069 97.3518 123.543 97.6782 128.038C98.0046 132.533 99.8394 136.787 102.885 140.108C103.247 140.937 103.728 141.708 104.313 142.397C104.519 142.632 104.739 142.854 104.972 143.062C106.465 144.637 108.506 145.577 110.672 145.688C111.035 146.121 111.422 146.537 111.833 146.936C111.474 148.465 111.004 149.966 110.427 151.426C109.266 154.335 107.82 157.122 106.111 159.747C94.3411 163.093 93.3058 183.08 93.7308 183.838C94.2376 184.742 91.9762 216.13 100.695 254.045C100.335 264.883 106.656 282.805 129.096 278.081C157.159 279.579 166.362 283.879 166.362 283.879C166.362 283.879 163.698 332.687 167.501 339.793C169.883 344.244 168.193 350.783 166.412 355.399C165.751 356.541 165.224 357.755 164.842 359.017C164.297 360.167 163.899 360.864 163.899 360.864H164.281C162.842 365.861 161.823 371.893 161.823 371.893C161.823 371.893 195.842 378.797 210.806 374.28C216.615 372.526 216.854 370.902 214.969 369.561C216.358 369.357 217.73 369.057 219.078 368.662C234.052 364.145 212.048 360.445 212.048 360.445Z" fill="url(#paint1_linear)"/>
<path d="M138.027 128.742C138.027 132.621 136.876 136.414 134.721 139.64C132.565 142.866 129.502 145.381 125.917 146.865C122.333 148.35 118.388 148.739 114.583 147.982C110.778 147.225 107.282 145.356 104.539 142.613C101.795 139.869 99.9269 136.374 99.17 132.569C98.4131 128.763 98.8016 124.819 100.286 121.235C101.771 117.65 104.285 114.586 107.511 112.431C110.737 110.275 114.53 109.125 118.41 109.125C120.986 109.125 123.537 109.632 125.917 110.618C128.297 111.604 130.46 113.049 132.281 114.87C134.103 116.692 135.548 118.854 136.534 121.235C137.52 123.615 138.027 126.165 138.027 128.742Z" fill="#FA595F"/>
<path d="M182.214 220.903L184.203 230.831C184.203 230.831 186.415 230.434 189.69 229.742C200.877 227.371 224.516 221.519 215.361 216.059C207.487 211.367 195.428 215.056 188.235 218.053C185.598 219.143 183.614 220.157 182.726 220.631C182.394 220.8 182.214 220.903 182.214 220.903Z" fill="#F8B9BF"/>
<path opacity="0.1" d="M182.775 223.704L184.203 230.831C184.203 230.831 186.415 230.434 189.69 229.742L188.235 218.053C185.598 219.143 183.614 220.157 182.726 220.631L182.775 223.704Z" fill="black"/>
<path d="M182.432 231.447L189.265 230.079L187.718 217.595L182.247 218.691L182.432 231.447Z" fill="#D9DFE8"/>
<path opacity="0.1" d="M182.432 231.447L185.38 230.853L184.841 218.173L182.247 218.691L182.432 231.447Z" fill="black"/>
<path d="M119.451 177.239C119.451 177.239 132.752 170.308 137.586 192.088C142.419 213.868 142.49 223.797 142.49 223.797L183.86 217.405L184.503 232.439C184.503 232.439 140.038 244.661 134.572 243.386C129.107 242.111 112.514 211.318 112.514 211.318C112.514 211.318 97.3109 187.369 119.451 177.239Z" fill="#790E8B"/>
<g opacity="0.1">
<path opacity="0.1" d="M182.214 220.903L184.203 230.831C184.203 230.831 186.415 230.434 189.69 229.742C200.877 227.371 224.516 221.519 215.361 216.059C207.487 211.367 195.428 215.056 188.235 218.053C185.598 219.143 183.614 220.157 182.726 220.631C182.394 220.8 182.214 220.903 182.214 220.903Z" fill="black"/>
<path opacity="0.1" d="M182.775 223.704L184.203 230.831C184.203 230.831 186.415 230.434 189.69 229.742L188.235 218.053C185.598 219.143 183.614 220.157 182.726 220.631L182.775 223.704Z" fill="black"/>
<path opacity="0.1" d="M182.432 231.447L189.265 230.079L187.718 217.595L182.247 218.691L182.432 231.447Z" fill="black"/>
<path opacity="0.1" d="M182.432 231.447L185.38 230.853L184.841 218.173L182.247 218.691L182.432 231.447Z" fill="black"/>
<path opacity="0.1" d="M120.541 178.329C120.541 178.329 133.842 171.398 138.675 193.178C143.509 214.958 143.58 224.886 143.58 224.886L184.95 218.495L185.593 233.529C185.593 233.529 141.128 245.751 135.662 244.476C130.197 243.201 113.604 212.408 113.604 212.408C113.604 212.408 98.4007 188.459 120.541 178.329Z" fill="black"/>
</g>
<path d="M194.698 347.639L211.013 357.993C211.013 357.993 232.586 361.605 217.911 366.036C203.237 370.466 169.888 363.693 169.888 363.693C169.888 363.693 172.422 348.686 175.119 346.697C177.817 344.708 194.698 347.639 194.698 347.639Z" fill="#F37291"/>
<path d="M134.213 236.58C134.213 236.58 142.348 241.305 156.979 245.718C165.556 248.307 176.345 250.307 183.8 251.522C187.624 252.112 191.186 253.826 194.034 256.446C196.882 259.066 198.886 262.473 199.793 266.235C200.378 268.446 200.342 270.777 199.69 272.97C196.845 281.481 197.423 351.694 197.423 351.694L171.899 352.92C171.899 352.92 175.937 340.163 170.962 333.428C165.987 326.693 174.318 277.449 174.318 277.449C174.318 277.449 165.278 273.231 137.76 271.765C111.969 277.215 102.7 248.797 106.983 241.147C111.266 233.496 134.213 236.58 134.213 236.58Z" fill="#96A2D0"/>
<g opacity="0.1">
<path opacity="0.1" d="M194.698 347.639L211.013 357.993C211.013 357.993 232.586 361.605 217.911 366.036C203.237 370.466 169.888 363.693 169.888 363.693C169.888 363.693 172.422 348.686 175.119 346.697C177.817 344.708 194.698 347.639 194.698 347.639Z" fill="black"/>
<path opacity="0.1" d="M134.213 236.58C134.213 236.58 142.348 241.305 156.979 245.718C165.556 248.307 176.345 250.307 183.8 251.522C187.624 252.112 191.186 253.826 194.034 256.446C196.882 259.066 198.886 262.473 199.793 266.235C200.378 268.446 200.342 270.777 199.69 272.97C196.845 281.481 197.423 351.694 197.423 351.694L171.899 352.92C171.899 352.92 175.937 340.163 170.962 333.428C165.987 326.693 174.318 277.449 174.318 277.449C174.318 277.449 165.278 273.231 137.76 271.765C111.969 277.215 102.7 248.797 106.983 241.147C111.266 233.496 134.213 236.58 134.213 236.58Z" fill="black"/>
</g>
<path d="M186.568 353.148L202.883 363.502C202.883 363.502 224.456 367.115 209.781 371.545C195.107 375.975 161.758 369.202 161.758 369.202C161.758 369.202 164.292 354.195 166.989 352.206C169.686 350.217 186.568 353.148 186.568 353.148Z" fill="#F37291"/>
<path d="M129.657 277.269C157.175 278.735 166.215 282.953 166.215 282.953C166.215 282.953 163.605 330.807 167.305 337.771C171.256 345.16 163.774 358.423 163.774 358.423L189.298 357.197C189.298 357.197 189.298 356.369 189.298 354.887C189.222 342.692 189.036 286.064 191.57 278.473C192.223 276.28 192.259 273.95 191.674 271.738C190.766 267.977 188.762 264.57 185.914 261.95C183.066 259.331 179.504 257.616 175.681 257.025C168.221 255.816 157.437 253.816 148.86 251.228L148.44 251.097C134.071 246.737 126.099 242.089 126.099 242.089C126.099 242.089 109.103 240.912 104.847 248.563C104.302 249.555 101.954 251.505 101.856 253.08C101.218 263.619 107.217 281.993 129.657 277.269Z" fill="#96A2D0"/>
<path d="M170.073 232.602L170.558 242.716C170.558 242.716 172.803 242.656 176.149 242.454C187.565 241.773 211.814 239.517 203.575 232.755C196.491 226.941 184.012 228.793 176.454 230.684C173.681 231.382 171.55 232.079 170.624 232.412C170.264 232.532 170.073 232.602 170.073 232.602Z" fill="#F8B9BF"/>
<path d="M105.332 163.774C105.332 163.774 108.602 166.591 112.656 169.708C117.179 170.94 122.464 172.035 126.24 172.76C125.069 168.319 126.11 163.496 127.837 159.251C129.712 154.836 132.199 150.707 135.226 146.985L112.503 138.773C114.111 143.433 113.048 148.636 111.321 153.088C109.796 156.895 107.783 160.487 105.332 163.774Z" fill="#F8B9BF"/>
<path opacity="0.1" d="M170.21 235.452L170.558 242.716C170.558 242.716 172.803 242.656 176.149 242.454L176.454 230.679C173.681 231.376 171.55 232.074 170.624 232.406L170.21 235.452Z" fill="black"/>
<path d="M168.716 243.059L175.675 242.727L176.002 230.15L170.433 230.417L168.716 243.059Z" fill="#D9DFE8"/>
<path d="M102.351 256.023C117.064 271.319 144.501 253.14 151.879 247.756C153.077 246.879 153.748 246.34 153.748 246.34C151.023 243.566 146.664 241 144.991 234.052C143.395 226.961 142.313 219.764 141.754 212.517C141.302 206.768 147.241 195.821 145.525 190.361C143.808 184.901 136.741 183.108 133.771 178.165C132.992 176.879 132.218 175.67 131.455 174.613C125.973 166.984 116.421 161.845 116.421 161.845C96.0685 154.897 94.4719 183.963 94.9786 184.868C95.4854 185.772 93.1586 217.813 102.351 256.023Z" fill="#790E8B"/>
<path opacity="0.1" d="M102.199 214.162C102.199 214.162 114.018 247.086 119.233 249.162C122.219 250.35 138.506 249.07 151.879 247.757C153.077 246.879 153.748 246.34 153.748 246.34C151.023 243.566 148.805 237.85 147.138 230.908L129.979 230.968C129.979 230.968 131.368 221.159 129.831 198.878C128.295 176.596 114.111 181.495 114.111 181.495C90.7174 188.203 102.199 214.162 102.199 214.162Z" fill="black"/>
<path opacity="0.1" d="M168.716 243.059L171.719 242.918L173.076 230.292L170.433 230.417L168.716 243.059Z" fill="black"/>
<path d="M114.514 180.078C114.514 180.078 128.682 175.212 130.235 197.461C131.788 219.71 130.398 229.551 130.398 229.551L172.258 229.398L170.651 244.362C170.651 244.362 124.878 249.811 119.647 247.746C114.416 245.68 102.607 212.751 102.607 212.751C102.607 212.751 91.1152 186.786 114.514 180.078Z" fill="#790E8B"/>
<path opacity="0.1" d="M115.032 147.269C115.789 143.999 112.307 143.896 111.217 140.73L133.951 148.903C132.258 150.979 130.731 153.186 129.385 155.502C128.174 155.804 126.936 155.987 125.69 156.047C120.165 156.32 118.688 150.854 115.032 147.269Z" fill="black"/>
<path d="M126.987 154.139C137.496 153.634 145.606 144.705 145.101 134.196C144.596 123.687 135.668 115.577 125.159 116.082C114.65 116.587 106.54 125.515 107.044 136.024C107.549 146.533 116.478 154.643 126.987 154.139Z" fill="#F8B9BF"/>
<path opacity="0.1" d="M116.23 194.208C116.23 194.208 122.257 222.756 129.374 225.671C136.49 228.586 133.264 229.208 133.264 229.208" fill="black"/>
<path opacity="0.1" d="M141.068 210.332C141.068 210.332 136.033 211.907 130.169 204.381L141.068 210.332Z" fill="black"/>
<path d="M103.152 117.298C107.968 117.298 111.871 113.395 111.871 108.58C111.871 103.765 107.968 99.8611 103.152 99.8611C98.3372 99.8611 94.4337 103.765 94.4337 108.58C94.4337 113.395 98.3372 117.298 103.152 117.298Z" fill="#FA595F"/>
<path d="M97.0275 113.184C95.512 111.568 94.6685 109.436 94.6685 107.22C94.6685 105.005 95.512 102.872 97.0275 101.256C96.8859 101.371 96.7442 101.485 96.6134 101.61C94.9283 103.194 93.9414 105.383 93.8699 107.694C93.7984 110.006 94.648 112.251 96.232 113.936C97.8159 115.621 100.004 116.608 102.316 116.68C104.628 116.751 106.873 115.902 108.558 114.318C108.694 114.192 108.814 114.056 108.934 113.925C107.227 115.338 105.046 116.048 102.834 115.91C100.623 115.772 98.5464 114.798 97.0275 113.184Z" fill="#FA595F"/>
<path d="M102.008 116.476C99.7953 116.609 97.6149 115.894 95.9102 114.477C94.2056 113.06 93.1048 111.047 92.8317 108.847C92.8317 109.027 92.8317 109.206 92.8317 109.392C92.9762 111.7 94.0317 113.856 95.7659 115.386C96.6245 116.143 97.624 116.724 98.7072 117.095C99.7904 117.466 100.936 117.621 102.079 117.549C103.222 117.477 104.339 117.182 105.368 116.678C106.396 116.175 107.315 115.474 108.073 114.615C108.83 113.756 109.411 112.757 109.782 111.674C110.154 110.59 110.308 109.445 110.236 108.302C110.236 108.117 110.198 107.942 110.176 107.757C110.181 109.977 109.338 112.115 107.82 113.735C106.302 115.355 104.224 116.335 102.008 116.476Z" fill="#FA595F"/>
<path opacity="0.1" d="M133.095 116.16C135.128 117.162 137.455 117.44 139.634 118.072C141.814 118.704 144.037 119.859 144.996 121.919C145.699 123.434 145.618 125.227 146.353 126.725C147.41 128.905 149.852 129.908 152.097 130.763C150.168 133.352 146.026 132.649 143.323 130.889C140.621 129.128 138.294 126.529 135.15 125.848C133.599 125.542 131.991 125.723 130.546 126.366C129.101 127.009 127.891 128.082 127.08 129.439C126.219 130.948 125.913 132.709 125.488 134.387C124.399 138.812 122.219 143.215 118.405 145.727C114.59 148.239 108.907 148.222 105.915 144.784C104.171 142.779 103.588 140.049 103.071 137.444C102.776 136.229 102.635 134.983 102.651 133.733C102.825 130.605 104.907 127.941 107.01 125.619C109.49 122.895 112.127 120.279 114.765 117.68C117.042 115.435 119.669 111.631 123.102 111.364C127.058 111.048 129.853 114.574 133.095 116.16Z" fill="black"/>
<path d="M132.551 115.615C134.583 116.617 136.91 116.895 139.09 117.527C141.269 118.159 143.492 119.315 144.451 121.374C145.154 122.889 145.073 124.682 145.808 126.18C146.865 128.36 149.307 129.363 151.552 130.218C149.623 132.807 145.481 132.104 142.779 130.344C140.076 128.584 137.749 125.984 134.605 125.303C133.054 124.997 131.446 125.178 130.001 125.821C128.557 126.464 127.346 127.537 126.535 128.894C125.674 130.404 125.369 132.164 124.944 133.842C123.854 138.267 121.674 142.67 117.86 145.182C114.045 147.694 108.362 147.677 105.37 144.239C103.626 142.234 103.043 139.504 102.526 136.899C102.231 135.684 102.09 134.438 102.106 133.188C102.281 130.06 104.362 127.396 106.465 125.074C108.945 122.35 111.582 119.734 114.22 117.135C116.497 114.89 119.124 111.086 122.557 110.819C126.513 110.503 129.308 114.029 132.551 115.615Z" fill="#FA595F"/>
<path d="M134.654 236.635H81.7808C79.2228 236.635 77.149 238.708 77.149 241.267V241.604C77.149 244.162 79.2228 246.236 81.7808 246.236H134.654C137.212 246.236 139.286 244.162 139.286 241.604V241.267C139.286 238.708 137.212 236.635 134.654 236.635Z" fill="#D6D6E3"/>
<path opacity="0.1" d="M77.149 241.539V242.296C77.149 243.344 77.5653 244.349 78.3062 245.09C79.047 245.831 80.0519 246.247 81.0997 246.247H135.335C136.383 246.247 137.388 245.831 138.129 245.09C138.869 244.349 139.286 243.344 139.286 242.296V241.539H77.149Z" fill="black"/>
<path d="M197.259 246.645H186.573V382.781H197.259V246.645Z" fill="#D6D6E3"/>
<path opacity="0.1" d="M197.259 246.645H186.573V255.472H197.259V246.645Z" fill="black"/>
<path d="M463.957 236.885H181.462V254.541H463.957V236.885Z" fill="#D6D6E3"/>
</g>
<defs>
<linearGradient id="paint0_linear" x1="470.858" y1="378.163" x2="496.106" y2="97.6354" gradientUnits="userSpaceOnUse">
<stop stop-color="#808080" stop-opacity="0.25"/>
<stop offset="0.54" stop-color="#808080" stop-opacity="0.12"/>
<stop offset="1" stop-color="#808080" stop-opacity="0.1"/>
</linearGradient>
<linearGradient id="paint1_linear" x1="43842.2" y1="197549" x2="43842.2" y2="55008.4" gradientUnits="userSpaceOnUse">
<stop stop-color="#808080" stop-opacity="0.25"/>
<stop offset="0.54" stop-color="#808080" stop-opacity="0.12"/>
<stop offset="1" stop-color="#808080" stop-opacity="0.1"/>
</linearGradient>
<clipPath id="clip0">
<rect width="610.637" height="470" fill="white"/>
</clipPath>
</defs>
</svg>
